<svg xmlns="http://www.w3.org/2000/svg" fill="none" viewBox="0 0 500 500"><path fill="#A1C939" fill-rule="evenodd" d="M245 342l-12-2c-6-2-11-6-12-13-1-11-2-22 9-30 7-6 57-42-29-13l-38 26c-10 7-22 11-37 2-13-9-27-16-40-24l22-2s-12-9-17-15l20 5s5 0 5-4v-9l17 17c2 2 4 0 4 0l5-7 3 9c1 2 2 3 4 2 8-5 15-9 21-16 2-2 2-2 0-4-8-6-13-13-16-22-1-3-4-5-6-7l-17-8c-10-3-18-9-25-16-4-5-10-8-16-10-7-2-12-6-17-11-6-5-11-11-18-15-6-3-7-12-3-20 4-7 9-11 16-14l23-8c11-3 21-7 28-17 9-11 38-6 40 8 1 3 3 3 5 3 12 4 25 5 38 8l43 7c20 2 38 10 57 12 25 5 44 16 61 30a8315 8315 0 0032 29l4 1 4 1s21 9 34 7c6-1 10 1 12 8s1 14-3 21c-2 4-6 6-10 6s-9 8-8 11l2 1c7-1 12 3 14 9 4 7 4 14-1 21-9 11-20 21-32 28-17 12-38 15-58 19-14 3-29 2-42 7l-37 14c-17 6-34 13-50 23l8-17-34 14c6-9 13-16 20-23-11-2-20 3-31 4l18-10c12-6 24-12 38-14 0-1 2 0 2-2z" clip-rule="evenodd"/><path fill="#0C8040" fill-rule="evenodd" d="M201 284s10-17 75-17c46 4 76 23 76 23-40-10-92-7-136 1l-15-7z" clip-rule="evenodd"/><path fill="#975C27" fill-rule="evenodd" d="M216 291c45-21 94-14 136-1-42-5-82-7-122 7l-14-6z" clip-rule="evenodd"/><path fill="#616163" fill-rule="evenodd" d="M302 154c-6 1-10 4-12 10l-1 2c-8 7-24 5-30-3-2-3-6-4-9-6-2-1-6-2-5-6 0-3 3-5 6-6l3-2 28 6 20 5zm61 30c-1 5-8 8-14 7-12-4-21-11-30-19-5-5-2-8 4-12 15 4 29 13 40 24z" clip-rule="evenodd"/><path fill="#17813F" fill-rule="evenodd" d="M403 215c3 3 6 11 6 11l-10-12 4 1z" clip-rule="evenodd"/><path fill="#92662A" fill-rule="evenodd" d="M399 214l10 12-14-13 4 1z" clip-rule="evenodd"/><path fill="#E1EEC1" fill-rule="evenodd" d="M245 342l1 1-3 1 2-2z" clip-rule="evenodd"/><path fill="#616163" fill-rule="evenodd" d="M272 202c-5 0-10-2-15-5-4-2-6-6-4-10 2-5 8-9 13-8 6 2 10 5 15 9l2 2c1 5-5 12-11 12z" clip-rule="evenodd"/><path fill="#616162" fill-rule="evenodd" d="M296 187c-1-6 5-9 10-7 4 3 9 6 12 10 2 2 4 4 3 7-2 3-4 5-8 5-5 1-17-10-17-15zm-51-17c0 2-5 5-8 4l-8-8c-2-1-1-3 0-4 1-2 3-3 4-2 5 1 8 5 11 9l1 1z" clip-rule="evenodd"/></svg>