<svg xmlns="http://www.w3.org/2000/svg" fill="none" viewBox="0 0 500 500"><path fill="#965526" fill-rule="evenodd" d="M407 96c-41 42-91 97-137 118L382 83c10-10 18 6 25 13z" clip-rule="evenodd"/><path fill="#A1C939" fill-rule="evenodd" d="M276 226l-1-6 127-57c9-4 19-6 28-5 9 2 15 6 19 14 4 10 6 20 7 31 0 3-2 3-4 4l-82 9-94 10zm-32 11l4 5-77 67-59 50c-3 3-4 3-7 0-6-6-11-13-15-21-6-11-5-20 3-29 5-6 11-11 18-14l126-54 7-4z" clip-rule="evenodd"/><path fill="#0C8040" fill-rule="evenodd" d="M274 219l-4-5c50-35 91-78 137-118 11 14 11 25 0 38-4 5-9 9-14 12-40 24-78 52-119 73z" clip-rule="evenodd"/><path fill="#965526" fill-rule="evenodd" d="M63 251c58-3 133-2 179-22l-172-5c-15 0-8 17-7 27z" clip-rule="evenodd"/><path fill="#0C8040" fill-rule="evenodd" d="M243 234l-1-5c-60 13-119 15-179 22 2 17 10 24 28 25 6 0 12 0 18-2 44-13 91-23 134-40z" clip-rule="evenodd"/><path fill="#58585A" fill-rule="evenodd" d="M235 140h-5v23l-2-1c-3-1-5 0-7 3l-22-10-2 4 22 10-1 7c-2 11 4 19 13 20-1 3 0 10 2 15 6 18 16 35 28 49 15 17 27 37 37 57l7 16 9 18 1 3c10 19 19 39 32 56 3 4 6 8 11 9 6 2 10 0 10-6 0-7-3-13-6-19-9-22-22-41-34-61a3298 3298 0 01-6-8l-7-11c-8-12-16-23-20-37-5-24-20-73-47-87v-1c10-12 2-18-13-24v-25z" clip-rule="evenodd"/></svg>