<svg xmlns="http://www.w3.org/2000/svg" fill="none" viewBox="0 0 500 500"><path fill="#A2C93A" fill-rule="evenodd" d="M361 80c-15-15-33-18-53-17-23 2-42 12-53 34l-52 117-19 44-36 79-44 100h19l1-1-1 1c13 0 15-1 20-10l46-71 23-36c2-3 4-5 8-4 21 3 42 3 63-1 108-31 93-180 93-180-2-18-2-41-15-55z" clip-rule="evenodd"/><path fill="#965626" fill-rule="evenodd" d="M184 258a175 175 0 0084-30c11-9 17-20 18-34 0-3 2-4 4-6l24-15c9 23 7 61-7 81a96 96 0 01-53 36c-16 5-32 8-49 8-3 0-4 2-6 4l-76 135h-19l80-179z" clip-rule="evenodd"/><path fill="#656867" fill-rule="evenodd" d="M373 109l23 6-20 20c-2-6-4-21-3-26z" clip-rule="evenodd"/><path fill="#0D8040" fill-rule="evenodd" d="M376 135c-29 18-57 37-86 54-2 2-3 3-3 6-1 14-8 25-19 34-10 8-21 13-32 18-17 6-34 10-52 11l71-161c12 6 23 14 36 19 28 10 56 12 82-7l3 26z" clip-rule="evenodd"/></svg>