<svg xmlns="http://www.w3.org/2000/svg" fill="none" viewBox="0 0 500 500"><path fill="#636365" fill-rule="evenodd" d="M202 134l96-29-25 45-71-16z" clip-rule="evenodd"/><path fill="#0D8040" fill-rule="evenodd" d="M116 158c33 26 37 159-9 176-67-53-52-128 9-176z" clip-rule="evenodd"/><path fill="#636365" fill-rule="evenodd" d="M185 364s50-3 75-11l22 43-97-32z" clip-rule="evenodd"/><path fill="#A1C939" fill-rule="evenodd" d="M385 212c34 38 26 52-3 76-68 46-152 109-253 60a207 207 0 0096-153c1-21-3-42-11-61 65 8 122 43 171 78z" clip-rule="evenodd"/><path fill="#965526" fill-rule="evenodd" d="M214 134c8 19 12 40 11 61-2 56-44 131-96 153l-22-14c28-32 35-103 9-176 30-21 46-24 98-24z" clip-rule="evenodd"/><path fill="#0D8040" fill-rule="evenodd" d="M358 251l79-117v234l-79-117z" clip-rule="evenodd"/></svg>