<svg xmlns="http://www.w3.org/2000/svg" fill="none" viewBox="0 0 500 500"><path fill="#0D8040" fill-rule="evenodd" d="M50 301c29-98 125-269 250-199 70 39 112 118 150 186 0 0-41-18-58-23a408 408 0 00-184-9c-52 8-102 23-151 43-2 1-4 3-7 2z" clip-rule="evenodd"/><path fill="#A0C839" fill-rule="evenodd" d="M450 288l-19-7c-39-13-80-14-119-9-44 6-85 19-127 32-35 11-70 21-108 20-8-1-15-4-22-9-7-7-5-14-5-14 91-41 263-87 400-13z" clip-rule="evenodd"/><path fill="#59595B" fill-rule="evenodd" d="M239 286c14-4 27-7 41-9 5 26 9 52 10 78 0 19 0 57-28 58s-32-31-31-53c1-25 4-49 8-74z" clip-rule="evenodd"/><path fill="#975728" fill-rule="evenodd" d="M284 300l-4-23c27-5 57-8 84-8 29 1 47 3 86 19-15 8-42 13-62 14-34 2-69 0-104-2zm-45-14l-2 13c-52 15-105 31-160 25 58 1 120-26 162-38z" clip-rule="evenodd"/></svg>