<svg xmlns="http://www.w3.org/2000/svg" fill="none" viewBox="0 0 500 500"><path fill="#A2C93A" fill-rule="evenodd" d="M203 373c-3-3-3-6-1-10l19-49c1-4 0-5-2-8-12-24-34-39-50-59-2-2-4-2-6-1-21 8-32 40-39 59-12 28-21 57-29 87-4 16-11 36-26 45 12-32 15-67 18-101 6-51 24-97 52-139 19-30 48-46 80-57 23-9 48-13 72-22 12-5 24-10 35-17 5-4 9-8 9-16 1-10 6-17 16-20 19-5 37 0 55 8l-12 3c-11 0-20 4-28 11-9 7-9 20-2 29 6 6 13 10 21 12 12 4 25 3 38 3-8 15-18 19-43 17 10 23 2 44-6 66-5 12-18 27-18 40-1 29-8 57-14 85l-20 5s-12 3-13-9c-2-29-6-57-18-83-3-8-2-7-9-2-10 8-14 18-15 31-2 17-6 33-9 49l-1 6c-8 7-15 16-22 24l-6 7c-9 1-18 4-26 6z" clip-rule="evenodd"/><path fill="#965727" fill-rule="evenodd" d="M394 76l12-3c6 4 6 7 2 12s-4 8 2 12l12 9c10 7 10 10 4 20-14 2-27-1-40-4-9-2-16-6-17-16-2-10 2-17 10-22l15-8z" clip-rule="evenodd"/><path fill="#525555" fill-rule="evenodd" d="M235 360c7-8 14-17 22-24 5 1 48 9 47 13-1 3-2 7-8 7l-41 3-20 1z" clip-rule="evenodd"/><path fill="#535655" fill-rule="evenodd" d="M203 373c8-2 17-5 26-6 5 3 11 4 17 4 8-1 13 4 20 9-16 1-31 6-46 3-7-1-13-3-17-10z" clip-rule="evenodd"/><path fill="#138040" fill-rule="evenodd" d="M394 76l-15 8c-8 5-12 12-10 22 1 10 8 14 17 16 12 3 40 4 40 4l-3 5s-25 2-38-3c-8-2-15-6-21-12-17-24 11-40 30-40z" clip-rule="evenodd"/><path fill="#525555" fill-rule="evenodd" d="M322 344l20-5 12 24c2 3 1 4-2 4-4 1-7 1-11-1l-16-10-3-12z" clip-rule="evenodd"/></svg>