<svg xmlns="http://www.w3.org/2000/svg" fill="none" viewBox="0 0 500 500"><path fill="#0D8040" fill-rule="evenodd" d="M355 318l-24 3c-28-64-58-126-88-189 0 0 14-7 42-10 92-2 153 81 125 167-5 14-41 26-55 29z" clip-rule="evenodd"/><path fill="#A2C93A" fill-rule="evenodd" d="M450 276l-3 7c-35 65-118 98-190 95-41-2-79-15-114-37a297 297 0 01-40-31c-2-2-4-2-7-1-21 5-42-8-45-30-4-20 11-39 32-42 12-1 29 10 29 10s43 34 66 50c-14-33-15-65-3-97 13-32 36-54 68-68l12 25c-98 65-29 190 79 174 49-7 75-42 75-42l41-13z" clip-rule="evenodd"/><path fill="#965626" fill-rule="evenodd" d="M331 321l24-3c22-5 37-17 55-29a124 124 0 01-145 32 93 93 0 01-57-75c-4-26 5-49 22-68 14-16 33-29 54-32 12-2 24-3 36 1 3 1 5 2 5 5l5 19c1 3 0 4-3 5-28 1-57 12-76 34a59 59 0 00-13 45c2 21 14 36 31 48 18 12 39 18 62 18z" clip-rule="evenodd"/><path fill="#A1C939" fill-rule="evenodd" d="M331 321c-72 7-138-80-59-129 18 0 36 2 53 8 11 4 21 9 28 19 10 12 11 26 8 41-5 23-18 44-30 61z" clip-rule="evenodd"/></svg>