<svg xmlns="http://www.w3.org/2000/svg" fill="none" viewBox="0 0 500 500"><path fill="#0D8041" fill-rule="evenodd" d="M99 190c-16-41-23-84-29-127 46 8 94 27 129 56 48 39 57 91 29 145 0 0-11 2-17 6-64 4-88-28-112-80z" clip-rule="evenodd"/><path fill="#0E8041" fill-rule="evenodd" d="M262 255c2-37 16-68 51-85 30-16 86-17 115 0-19 62-110 118-166 85z" clip-rule="evenodd"/><path fill="#0F8142" fill-rule="evenodd" d="M203 351c-3 0-5 2-8 4-31 14-63 5-84-26-8-12-13-25-17-39-1-3-1-5 2-5 31-3 60 3 83 24 14 12 22 26 24 42z" clip-rule="evenodd"/><path fill="#646466" fill-rule="evenodd" d="M195 355c3-2 5-4 8-4l7 7c5-30 11-59 1-88 6-4 12-5 17-6 7 15 7 31 9 47l6-14c5-14 10-29 19-42l12 5c-17 27-30 57-37 89-4 18-3 36-3 55v25c0 3-1 4-5 5l-11 3c-3 1-4 0-4-4 1-14 1-28-1-42-1-8-3-16-7-24-2-5-5-10-11-12z" clip-rule="evenodd"/><path fill="#955627" fill-rule="evenodd" d="M158 161l10-17c31 32 41 83 41 126-12 1-23 0-35-3 9-25 4-65-14-94-2-3-5-6-2-12z" clip-rule="evenodd"/><path fill="#A0C739" fill-rule="evenodd" d="M160 173s7 7 16 32c7 25 8 33 3 50l-5 12c-9-1-25-7-37-19 15-13 28-25 26-53l-3-22z" clip-rule="evenodd"/><path fill="#945827" fill-rule="evenodd" d="M274 260c11-25 44-42 56-47 10-4 32-6 32-6l-13 15s-28 7-39 16c-9 7-17 15-20 27-6-1-11-2-16-5z" clip-rule="evenodd"/><path fill="#A0C73A" fill-rule="evenodd" d="M290 265c3-12 11-20 20-27 11-9 24-14 39-16l-18 11c-7 7-14 17-6 28-11 4-23 5-35 4z" clip-rule="evenodd"/><path fill="#915828" fill-rule="evenodd" d="M201 342c-23-1-45-8-61-27v-6c2-2 6 0 9 3 13 11 24 16 39 18l9 1c3 5 3 6 4 11z" clip-rule="evenodd"/></svg>