<svg xmlns="http://www.w3.org/2000/svg" fill="none" viewBox="0 0 500 500"><path fill="#535557" fill-rule="evenodd" d="M216 204l-15-17 33-3c5-1 7-7 7-7l6-27 5 43s-1 5-4 6l-32 5zm-56 152l13 19-29 3c-7 0-8 7-8 7l-6 35-8-53c0-4 1-5 5-6l33-5z" clip-rule="evenodd"/><path fill="#525455" fill-rule="evenodd" d="M282 325l-10-20 24-25c1-1 2-3 5-1l40 36-37-14-22 24z" clip-rule="evenodd"/><path fill="#A2C93A" fill-rule="evenodd" d="M173 97c19 13 24 32 20 53l-4 14c-2 5-2 8 1 11-30 60-39 102-38 163-13-24-18-53-21-80l-2-25 1-30c0-4-1-5-4-6-14-4-27-10-37-22-4-5-7-11-8-18-2-20-3-41 0-62 2-14 8-26 22-32 24-3 49 19 70 34z" clip-rule="evenodd"/><path fill="#A1C93A" fill-rule="evenodd" d="M309 375c6 7 15 7 25 2 8-5 13-12 17-19 7-13 11-28 15-42 8-29 36-40 57-41h4c-2 4-4 6-7 7-19 11-27 28-29 49-3 33-15 61-39 83-6 6-13 10-20 14-67-8-148-59-134-128a201 201 0 0124-87s25 41 36 62c16 33 31 63 51 100z" clip-rule="evenodd"/><path fill="#965627" fill-rule="evenodd" d="M222 213c-65 111-13 190 95 220-14 5-29 4-43 2-41-5-74-25-100-57-14-18-24-35-27-66-2-32 7-63 20-92 7-16 14-31 23-45 12 12 23 24 32 38z" clip-rule="evenodd"/><path fill="#0F8040" fill-rule="evenodd" d="M317 433c-17-2-33-5-49-11-30-10-55-27-71-55-19-35-18-70-4-106 6-15 15-34 29-48-12 26-23 59-24 87 0 44 19 76 57 99 21 13 49 20 77 29-5 3-10 4-15 5z" clip-rule="evenodd"/><path fill="#525556" fill-rule="evenodd" d="M129 233l2 25-20 20c-2 2-3 4-6 1l-32-28 30 10 26-28z" clip-rule="evenodd"/></svg>