<svg xmlns="http://www.w3.org/2000/svg" fill="none" viewBox="0 0 500 500"><path fill="#618E4A" fill-rule="evenodd" d="M259 437c-93 0-166-55-189-136-24-83 16-170 89-215a187 187 0 11100 351zm120-201c-5-37-17-63-47-86-28-23-60-33-96-29-35 3-61 17-83 43-26 30-37 58-32 97a129 129 0 00220 83c33-31 44-66 38-108z" clip-rule="evenodd"/><circle cx="250" cy="250" r="140" fill="#A1C939"/><path fill="#618E4A" d="M229 286c0-13 2-23 5-31 2-7 7-14 14-19 6-5 11-10 14-15 4-4 6-9 6-15 0-13-6-20-18-20-5 0-9 2-12 6-4 4-5 9-6 16h-44c0-18 6-31 17-41 10-10 26-15 45-15 20 0 35 5 46 14s16 21 16 38c0 7-1 14-4 20s-8 12-14 18l-15 14c-5 5-8 9-9 13-2 5-3 10-3 17h-38zm-5 40c0-7 2-12 7-16s10-7 17-7 13 3 18 7 7 9 7 16c0 6-2 12-7 16s-11 6-18 6-12-2-17-6-7-10-7-16z"/></svg>