<svg width="600" height="330"  xmlns="http://www.w3.org/2000/svg" viewBox="0 0 140 140" fill="none">
    <path
        d="M77 32h1.8v.8h.9l21.6 21v.8h.8v42.9c0 3.2-.8 5.6-3.3 7.3-1.7 2.4-4.2 3.2-7.5 3.2H48.8c-3.3 0-5.8-.8-7.5-3.2-1.6-1.7-3.3-4-3.3-7.3V41.7c0-2.4 1.7-4.8 3.3-6.5 1.7-2.4 4.2-3.2 7.5-3.2h28.3zm7.5 55.8c1.7 0 3.4 1.6 3.4 3.2s-1.7 3.3-3.4 3.3h-29c-1.7 0-3.4-1.7-3.4-3.3 0-1.6 1.7-3.2 3.4-3.2h29zm0-13.8c1.7 0 3.4 1.7 3.4 3.3 0 1.6-1.7 3.2-3.4 3.2h-29c-1.7 0-3.4-1.6-3.4-3.2s1.7-3.3 3.4-3.3h29zM63 60.3c1.7 0 3.4.8 3.4 2.4 0 2.4-1.7 3.3-3.4 3.3h-7.5c-1.7 0-3.4-.9-3.4-3.3 0-1.6 1.7-2.4 3.4-2.4h7.4zm17.5-17.8V53h10.8L80.4 42.5zm15 17H77c-1.7 0-3.4-1.6-3.4-3.2V38.5H48.8c-1.7 0-2.5 0-3.3.8-.9.8-.9 1.6-.9 2.4v55.8c0 1.6 0 2.4.9 3.2.8.8 1.6.8 3.3.8h42.4c1.7 0 2.5 0 3.3-.8.9-.8.9-1.6.9-3.2v-38z"
        fill="#3B82F6" />
</svg>