<svg id="svg" version="1.1" xmlns="http://www.w3.org/2000/svg" xmlns:xlink="http://www.w3.org/1999/xlink" width="400" height="400" viewBox="0, 0, 400,400"><g id="svgg"><path id="path0" d="M188.984 97.960 C 186.776 98.548,184.319 99.337,183.524 99.714 C 182.729 100.091,181.726 100.400,181.293 100.400 C 180.861 100.400,180.064 100.749,179.522 101.175 C 178.980 101.602,178.069 102.068,177.498 102.211 C 176.926 102.355,176.148 102.816,175.767 103.236 C 175.387 103.656,174.869 104.000,174.616 104.000 C 173.227 104.000,164.462 111.842,161.652 115.600 C 161.076 116.370,160.505 117.090,160.383 117.200 C 159.200 118.268,154.000 128.890,154.000 130.239 C 154.000 130.657,153.620 131.990,153.156 133.200 C 151.488 137.548,151.481 152.512,153.146 156.800 C 153.615 158.010,154.001 159.360,154.003 159.800 C 154.006 160.240,154.450 161.500,154.991 162.600 C 155.532 163.700,155.981 164.801,155.987 165.046 C 155.994 165.291,156.335 165.921,156.745 166.446 C 157.155 166.971,157.623 167.824,157.785 168.341 C 158.209 169.693,159.437 171.550,162.192 175.004 C 164.082 177.375,169.494 182.800,169.969 182.800 C 170.152 182.800,170.546 183.094,170.845 183.454 C 172.166 185.046,181.668 190.099,184.252 190.583 C 185.088 190.740,186.289 191.136,186.921 191.462 C 190.667 193.400,209.673 193.415,213.451 191.484 C 214.083 191.161,215.209 190.765,215.954 190.605 C 217.225 190.331,220.663 188.833,222.000 187.971 C 222.330 187.758,223.178 187.318,223.884 186.993 C 224.590 186.669,225.940 185.852,226.884 185.179 C 227.828 184.505,229.185 183.587,229.900 183.138 C 230.615 182.688,231.200 182.153,231.200 181.948 C 231.200 181.743,231.479 181.468,231.820 181.337 C 233.797 180.578,240.181 172.647,242.394 168.200 C 242.832 167.320,243.361 166.330,243.571 166.000 C 244.475 164.573,246.001 160.773,246.009 159.925 C 246.014 159.416,246.389 158.190,246.843 157.200 C 248.668 153.220,248.732 138.720,246.949 133.329 C 246.427 131.751,246.000 130.076,246.000 129.609 C 246.000 129.141,245.657 128.093,245.239 127.279 C 244.820 126.466,244.186 125.170,243.830 124.400 C 243.474 123.630,242.743 122.280,242.206 121.400 C 241.668 120.520,240.949 119.215,240.609 118.500 C 240.268 117.785,239.824 117.200,239.622 117.200 C 239.419 117.200,239.139 116.839,238.999 116.397 C 238.859 115.955,236.822 113.680,234.472 111.341 C 229.390 106.283,230.049 106.815,224.600 103.369 C 222.476 102.026,219.106 100.400,218.444 100.399 C 218.090 100.398,217.257 100.066,216.594 99.662 C 215.931 99.257,214.131 98.695,212.594 98.412 C 211.057 98.129,209.193 97.651,208.451 97.349 C 205.878 96.302,193.790 96.681,188.984 97.960 M193.800 212.411 C 192.040 212.578,187.775 212.927,184.321 213.185 C 180.868 213.443,176.368 213.999,174.321 214.422 C 172.275 214.844,170.011 215.192,169.290 215.195 C 168.570 215.198,166.961 215.558,165.715 215.996 C 164.469 216.434,162.538 216.909,161.425 217.051 C 160.311 217.193,158.901 217.561,158.290 217.870 C 157.680 218.178,156.226 218.607,155.060 218.823 C 153.894 219.038,152.241 219.571,151.386 220.007 C 150.531 220.443,149.412 220.800,148.899 220.800 C 148.387 220.800,147.262 221.160,146.400 221.600 C 145.538 222.040,144.593 222.400,144.301 222.400 C 144.008 222.400,143.056 222.764,142.185 223.210 C 141.313 223.655,139.884 224.213,139.009 224.450 C 138.134 224.686,137.009 225.321,136.509 225.861 L 135.600 226.841 135.606 262.321 C 135.610 283.982,135.760 298.034,135.992 298.400 C 136.326 298.929,143.876 299.000,200.000 299.000 C 256.124 299.000,263.674 298.929,264.008 298.400 C 264.240 298.034,264.390 283.954,264.394 262.246 L 264.400 226.692 263.379 225.746 C 262.818 225.226,262.269 224.800,262.159 224.800 C 261.852 224.800,255.602 222.411,253.800 221.605 C 252.920 221.211,251.560 220.777,250.778 220.641 C 249.995 220.504,248.652 220.034,247.793 219.596 C 246.934 219.158,245.717 218.800,245.090 218.800 C 244.462 218.800,243.105 218.463,242.074 218.051 C 241.043 217.638,239.030 217.083,237.600 216.815 C 236.170 216.548,234.813 216.175,234.585 215.986 C 234.357 215.798,232.557 215.445,230.585 215.202 C 228.613 214.960,226.010 214.515,224.800 214.214 C 223.590 213.914,219.720 213.462,216.200 213.211 C 212.680 212.960,207.924 212.585,205.631 212.378 C 200.980 211.956,198.502 211.963,193.800 212.411 " stroke="none" fill="#f9fafb" fill-rule="evenodd"></path><path id="path1" d="M0.000 199.200 L 0.000 398.400 200.000 398.400 L 400.000 398.400 400.000 199.200 L 400.000 0.000 200.000 0.000 L 0.000 0.000 0.000 199.200 M212.403 96.747 C 212.954 97.150,214.297 97.614,215.387 97.777 C 216.477 97.941,217.805 98.418,218.338 98.837 C 218.871 99.257,219.734 99.600,220.254 99.600 C 220.774 99.600,221.560 99.960,222.000 100.400 C 222.440 100.840,223.162 101.200,223.604 101.200 C 224.046 101.200,224.972 101.740,225.663 102.400 C 226.354 103.060,227.168 103.600,227.472 103.600 C 227.776 103.600,228.122 103.854,228.241 104.164 C 228.361 104.474,228.880 104.834,229.396 104.963 C 230.468 105.232,238.829 113.289,239.604 114.800 C 239.886 115.350,240.361 115.944,240.658 116.120 C 240.956 116.296,241.200 116.675,241.200 116.961 C 241.200 117.248,241.650 117.969,242.200 118.562 C 242.750 119.156,243.200 119.921,243.200 120.263 C 243.200 120.605,243.650 121.419,244.200 122.073 C 244.750 122.727,245.200 123.689,245.200 124.211 C 245.200 124.733,245.497 125.326,245.860 125.530 C 246.278 125.764,246.630 126.710,246.820 128.110 C 247.011 129.518,247.425 130.625,247.960 131.160 C 248.664 131.864,248.800 132.486,248.800 135.001 C 248.800 137.239,249.004 138.383,249.600 139.496 C 250.760 141.659,250.760 148.449,249.600 150.200 C 248.973 151.147,248.805 152.079,248.803 154.622 C 248.800 157.429,248.671 158.019,247.800 159.200 C 247.146 160.087,246.800 161.082,246.800 162.078 C 246.800 163.067,246.520 163.880,246.000 164.400 C 245.560 164.840,245.200 165.546,245.200 165.969 C 245.200 166.392,244.788 167.247,244.284 167.869 C 243.781 168.491,243.155 169.495,242.893 170.100 C 242.631 170.705,242.248 171.200,242.040 171.200 C 241.833 171.200,241.550 171.717,241.411 172.350 C 241.272 172.982,240.718 173.914,240.179 174.419 C 239.641 174.925,239.200 175.578,239.200 175.870 C 239.200 176.161,238.926 176.400,238.590 176.400 C 238.255 176.400,237.809 176.850,237.600 177.400 C 237.391 177.950,236.965 178.400,236.653 178.400 C 236.342 178.400,235.974 178.850,235.836 179.400 C 235.674 180.046,235.304 180.400,234.792 180.400 C 234.349 180.400,234.000 180.669,234.000 181.010 C 234.000 181.345,233.550 181.791,233.000 182.000 C 232.450 182.209,232.000 182.655,232.000 182.990 C 232.000 183.335,231.649 183.600,231.191 183.600 C 230.717 183.600,230.194 184.013,229.927 184.600 C 229.677 185.150,229.230 185.600,228.936 185.600 C 228.641 185.600,228.045 185.955,227.610 186.390 C 227.176 186.824,226.321 187.302,225.710 187.452 C 225.100 187.602,224.204 188.146,223.719 188.662 C 223.235 189.178,222.543 189.600,222.182 189.600 C 221.821 189.600,221.095 189.939,220.568 190.354 C 220.041 190.769,218.784 191.231,217.776 191.383 C 216.767 191.534,215.595 192.005,215.171 192.429 C 214.574 193.026,213.835 193.200,211.894 193.200 C 210.090 193.200,208.941 193.441,207.794 194.060 C 205.396 195.354,194.604 195.354,192.206 194.060 C 191.058 193.441,189.910 193.200,188.102 193.200 C 186.087 193.200,185.457 193.042,184.907 192.400 C 184.530 191.960,183.839 191.600,183.371 191.600 C 182.273 191.600,179.970 190.826,179.200 190.197 C 178.870 189.928,178.110 189.591,177.512 189.449 C 176.913 189.307,176.232 188.833,175.997 188.395 C 175.763 187.958,175.282 187.600,174.927 187.600 C 174.138 187.600,170.000 184.901,170.000 184.386 C 170.000 184.182,169.550 183.902,169.000 183.764 C 168.450 183.626,168.000 183.258,168.000 182.947 C 168.000 182.635,167.550 182.209,167.000 182.000 C 166.450 181.791,166.000 181.345,166.000 181.010 C 166.000 180.674,165.726 180.400,165.390 180.400 C 165.055 180.400,164.609 179.950,164.400 179.400 C 164.191 178.850,163.757 178.400,163.437 178.400 C 163.116 178.400,162.740 178.040,162.600 177.600 C 162.460 177.159,161.998 176.613,161.573 176.386 C 161.148 176.158,160.800 175.715,160.800 175.400 C 160.800 175.085,160.465 174.649,160.055 174.429 C 159.645 174.210,159.071 173.439,158.778 172.715 C 158.486 171.992,158.011 171.256,157.723 171.080 C 157.436 170.904,157.200 170.441,157.200 170.050 C 157.200 169.659,156.750 168.917,156.200 168.400 C 155.650 167.883,155.200 167.077,155.200 166.608 C 155.200 166.139,154.750 165.145,154.200 164.400 C 153.563 163.537,153.200 162.514,153.200 161.584 C 153.200 160.667,152.922 159.873,152.454 159.449 C 151.871 158.921,151.646 157.931,151.425 154.929 C 151.244 152.452,150.910 150.729,150.488 150.084 C 149.611 148.747,149.643 140.271,150.528 139.255 C 150.889 138.841,151.177 137.276,151.311 135.008 C 151.492 131.939,151.645 131.335,152.361 130.859 C 152.994 130.439,153.200 129.885,153.200 128.605 C 153.200 127.511,153.486 126.545,154.004 125.886 C 154.445 125.325,154.921 124.296,155.060 123.601 C 155.199 122.905,155.647 122.127,156.056 121.872 C 156.465 121.617,156.800 121.105,156.800 120.734 C 156.800 120.364,157.225 119.553,157.745 118.931 C 158.265 118.309,158.817 117.395,158.972 116.900 C 159.127 116.405,159.512 116.000,159.827 116.000 C 160.142 116.000,160.400 115.683,160.400 115.296 C 160.400 114.181,169.842 104.800,170.964 104.800 C 171.267 104.800,171.618 104.530,171.745 104.200 C 171.871 103.870,172.241 103.600,172.567 103.600 C 172.892 103.600,173.649 103.146,174.248 102.590 C 174.847 102.035,175.783 101.469,176.327 101.332 C 176.871 101.196,177.650 100.750,178.058 100.342 C 178.466 99.934,179.312 99.600,179.939 99.600 C 180.565 99.600,181.475 99.256,181.960 98.835 C 182.445 98.414,183.778 97.945,184.921 97.793 C 186.065 97.641,187.363 97.184,187.806 96.777 C 189.335 95.374,210.488 95.348,212.403 96.747 M216.200 211.431 C 217.530 212.125,222.456 212.792,226.280 212.797 C 228.195 212.799,228.847 212.955,229.140 213.479 C 229.438 214.012,230.309 214.205,233.193 214.379 C 236.077 214.553,236.977 214.753,237.384 215.311 C 237.757 215.820,238.680 216.089,240.652 216.262 C 242.163 216.394,244.030 216.826,244.800 217.222 C 245.570 217.617,247.004 218.032,247.986 218.144 C 248.968 218.256,249.982 218.635,250.240 218.987 C 250.512 219.359,251.582 219.730,252.795 219.874 C 253.958 220.012,255.173 220.424,255.541 220.805 C 255.903 221.181,256.989 221.610,257.954 221.758 C 258.918 221.906,260.158 222.381,260.708 222.813 C 261.258 223.246,262.114 223.600,262.610 223.600 C 263.106 223.600,263.895 223.915,264.363 224.300 L 265.214 225.000 265.107 262.600 L 265.000 300.200 200.442 300.301 C 153.061 300.376,135.741 300.283,135.342 299.952 C 134.738 299.451,134.516 225.466,135.116 224.522 C 135.283 224.260,136.193 223.871,137.138 223.658 C 138.084 223.446,139.180 222.980,139.574 222.624 C 139.968 222.267,141.215 221.866,142.345 221.732 C 143.676 221.574,144.400 221.300,144.400 220.952 C 144.400 220.415,144.824 220.269,147.780 219.790 C 148.649 219.649,149.554 219.269,149.791 218.944 C 150.028 218.620,151.207 218.220,152.411 218.056 C 153.615 217.891,155.050 217.470,155.600 217.120 C 156.150 216.770,157.831 216.359,159.336 216.206 C 161.220 216.015,162.309 215.691,162.836 215.164 C 163.458 214.542,164.182 214.400,166.739 214.400 C 169.303 214.400,170.046 214.254,170.800 213.600 C 171.518 212.978,172.309 212.797,174.361 212.788 C 177.666 212.772,182.763 212.126,183.354 211.647 C 184.211 210.954,185.501 210.893,200.200 210.849 C 212.911 210.811,215.169 210.893,216.200 211.431 " stroke="none" fill="#2b9bcc" fill-rule="evenodd"></path><path id="path2" d="M191.385 96.372 C 190.276 96.548,188.800 96.986,188.104 97.346 C 187.409 97.706,186.241 98.000,185.509 98.000 C 184.777 98.000,183.779 98.279,183.292 98.621 C 182.804 98.962,181.504 99.509,180.403 99.836 C 179.301 100.163,178.400 100.604,178.400 100.815 C 178.400 101.027,178.161 101.200,177.869 101.200 C 177.382 101.200,176.517 101.707,171.800 104.754 C 168.783 106.702,160.800 114.475,160.800 115.463 C 160.800 115.737,160.524 116.115,160.187 116.303 C 159.596 116.634,158.698 118.051,157.445 120.632 C 157.115 121.309,156.566 122.096,156.223 122.381 C 155.880 122.665,155.600 123.084,155.600 123.310 C 155.600 123.537,155.166 124.640,154.636 125.761 C 154.106 126.883,153.543 128.520,153.386 129.400 C 153.228 130.280,152.875 131.270,152.601 131.600 C 151.857 132.497,150.330 145.485,150.766 147.206 C 150.960 147.973,151.335 150.580,151.598 153.000 C 151.861 155.420,152.296 157.760,152.565 158.200 C 152.833 158.640,153.279 160.035,153.555 161.300 C 153.831 162.565,154.196 163.600,154.365 163.600 C 154.534 163.600,154.918 164.365,155.218 165.300 C 155.519 166.235,156.060 167.450,156.420 168.000 C 156.780 168.550,157.553 169.730,158.137 170.622 C 158.722 171.513,159.200 172.376,159.200 172.539 C 159.200 173.883,170.971 185.600,172.320 185.600 C 172.516 185.600,173.002 185.960,173.400 186.400 C 173.798 186.840,174.411 187.200,174.762 187.200 C 175.113 187.201,175.923 187.651,176.562 188.200 C 177.201 188.750,177.957 189.200,178.241 189.200 C 178.525 189.200,179.604 189.650,180.638 190.200 C 181.673 190.750,182.902 191.200,183.371 191.200 C 183.839 191.200,184.607 191.470,185.078 191.799 C 185.548 192.129,187.306 192.590,188.983 192.823 C 190.661 193.056,192.768 193.507,193.667 193.824 C 195.920 194.618,204.588 194.615,206.495 193.818 C 207.261 193.498,209.237 193.069,210.888 192.864 C 212.538 192.659,214.319 192.223,214.844 191.894 C 215.370 191.566,216.402 191.187,217.138 191.051 C 218.823 190.741,223.330 188.608,223.996 187.805 C 224.272 187.472,224.738 187.200,225.031 187.200 C 226.289 187.200,229.587 184.612,234.716 179.600 C 239.081 175.334,239.921 174.254,242.641 169.400 C 243.011 168.740,243.635 167.787,244.029 167.281 C 244.423 166.776,244.869 165.796,245.021 165.104 C 245.173 164.412,245.529 163.614,245.812 163.331 C 246.095 163.047,246.455 162.056,246.612 161.126 C 246.769 160.197,247.217 158.799,247.608 158.018 C 248.002 157.232,248.431 155.174,248.572 153.400 C 248.712 151.640,249.005 149.182,249.224 147.938 C 249.714 145.149,248.367 132.686,247.464 131.643 C 247.157 131.289,246.786 130.206,246.638 129.237 C 246.491 128.267,246.113 127.007,245.798 126.437 C 245.483 125.866,244.943 124.770,244.598 124.000 C 244.254 123.230,243.535 121.880,243.001 121.000 C 242.467 120.120,241.659 118.725,241.207 117.900 C 240.754 117.075,240.220 116.400,240.019 116.400 C 239.818 116.400,239.529 116.007,239.377 115.526 C 238.872 113.935,231.287 106.717,227.818 104.525 C 226.708 103.824,225.440 102.963,225.000 102.613 C 223.883 101.722,219.525 99.604,218.800 99.599 C 218.470 99.597,217.660 99.237,217.000 98.800 C 216.340 98.363,215.260 98.000,214.600 97.994 C 213.940 97.988,212.590 97.601,211.600 97.135 C 209.622 96.204,195.742 95.680,191.385 96.372 M208.451 97.349 C 209.193 97.651,211.057 98.129,212.594 98.412 C 214.131 98.695,215.931 99.257,216.594 99.662 C 217.257 100.066,218.090 100.398,218.444 100.399 C 219.106 100.400,222.476 102.026,224.600 103.369 C 230.049 106.815,229.390 106.283,234.472 111.341 C 236.822 113.680,238.859 115.955,238.999 116.397 C 239.139 116.839,239.419 117.200,239.622 117.200 C 239.824 117.200,240.268 117.785,240.609 118.500 C 240.949 119.215,241.668 120.520,242.206 121.400 C 242.743 122.280,243.474 123.630,243.830 124.400 C 244.186 125.170,244.820 126.466,245.239 127.279 C 245.657 128.093,246.000 129.141,246.000 129.609 C 246.000 130.076,246.427 131.751,246.949 133.329 C 248.732 138.720,248.668 153.220,246.843 157.200 C 246.389 158.190,246.014 159.416,246.009 159.925 C 246.001 160.773,244.475 164.573,243.571 166.000 C 243.361 166.330,242.832 167.320,242.394 168.200 C 240.181 172.647,233.797 180.578,231.820 181.337 C 231.479 181.468,231.200 181.743,231.200 181.948 C 231.200 182.153,230.615 182.688,229.900 183.138 C 229.185 183.587,227.828 184.505,226.884 185.179 C 225.940 185.852,224.590 186.669,223.884 186.993 C 223.178 187.318,222.330 187.758,222.000 187.971 C 220.663 188.833,217.225 190.331,215.954 190.605 C 215.209 190.765,214.083 191.161,213.451 191.484 C 209.673 193.415,190.667 193.400,186.921 191.462 C 186.289 191.136,185.088 190.740,184.252 190.583 C 181.668 190.099,172.166 185.046,170.845 183.454 C 170.546 183.094,170.152 182.800,169.969 182.800 C 169.786 182.800,168.319 181.495,166.710 179.900 C 162.300 175.530,158.493 170.600,157.785 168.341 C 157.623 167.824,157.155 166.971,156.745 166.446 C 156.335 165.921,155.994 165.291,155.987 165.046 C 155.981 164.801,155.532 163.700,154.991 162.600 C 154.450 161.500,154.006 160.240,154.003 159.800 C 154.001 159.360,153.615 158.010,153.146 156.800 C 151.481 152.512,151.488 137.548,153.156 133.200 C 153.620 131.990,154.000 130.657,154.000 130.239 C 154.000 128.890,159.200 118.268,160.383 117.200 C 160.505 117.090,161.076 116.370,161.652 115.600 C 164.462 111.842,173.227 104.000,174.616 104.000 C 174.869 104.000,175.387 103.656,175.767 103.236 C 176.148 102.816,176.926 102.355,177.498 102.211 C 178.069 102.068,178.980 101.602,179.522 101.175 C 180.064 100.749,180.861 100.400,181.293 100.400 C 181.726 100.400,182.729 100.091,183.524 99.714 C 188.909 97.159,204.377 95.691,208.451 97.349 M186.800 211.797 C 185.150 212.112,181.550 212.566,178.800 212.806 C 176.050 213.046,173.156 213.489,172.370 213.790 C 171.583 214.091,169.603 214.461,167.970 214.612 C 166.336 214.763,164.460 215.162,163.800 215.499 C 163.140 215.836,161.596 216.243,160.370 216.404 C 159.143 216.565,157.523 216.976,156.770 217.318 C 156.016 217.660,154.450 218.132,153.289 218.368 C 152.127 218.604,150.777 219.054,150.289 219.369 C 149.800 219.683,148.680 220.066,147.800 220.219 C 146.920 220.372,145.639 220.835,144.953 221.249 C 144.267 221.662,143.367 222.006,142.953 222.013 C 142.539 222.019,141.300 222.468,140.200 223.009 C 139.100 223.550,137.885 223.994,137.500 223.996 C 137.115 223.998,136.440 224.360,136.000 224.800 C 135.019 225.781,134.707 298.547,135.680 299.520 C 136.572 300.412,264.345 300.194,264.713 299.300 C 264.871 298.915,265.000 282.280,265.000 262.332 L 265.000 226.064 264.030 225.032 C 263.497 224.465,262.777 223.994,262.430 223.987 C 262.084 223.981,260.900 223.532,259.800 222.991 C 258.700 222.450,257.530 222.005,257.200 222.001 C 256.870 221.998,256.060 221.709,255.400 221.359 C 254.740 221.009,253.220 220.463,252.023 220.146 C 250.826 219.829,249.653 219.410,249.418 219.215 C 249.183 219.020,247.912 218.591,246.595 218.263 C 245.278 217.935,243.480 217.389,242.600 217.051 C 241.720 216.712,240.275 216.427,239.389 216.418 C 238.503 216.408,237.365 216.111,236.861 215.758 C 236.357 215.405,234.562 214.949,232.872 214.745 C 231.182 214.541,228.990 214.116,228.000 213.800 C 227.010 213.484,223.860 213.030,221.000 212.791 C 218.140 212.551,215.080 212.169,214.200 211.942 C 211.482 211.239,190.311 211.128,186.800 211.797 M205.631 212.378 C 207.924 212.585,212.680 212.960,216.200 213.211 C 219.720 213.462,223.590 213.914,224.800 214.214 C 226.010 214.515,228.613 214.960,230.585 215.202 C 232.557 215.445,234.357 215.798,234.585 215.986 C 234.813 216.175,236.170 216.548,237.600 216.815 C 239.030 217.083,241.043 217.638,242.074 218.051 C 243.105 218.463,244.462 218.800,245.090 218.800 C 245.717 218.800,246.934 219.158,247.793 219.596 C 248.652 220.034,249.995 220.504,250.778 220.641 C 251.560 220.777,252.920 221.211,253.800 221.605 C 255.602 222.411,261.852 224.800,262.159 224.800 C 262.269 224.800,262.818 225.226,263.379 225.746 L 264.400 226.692 264.394 262.246 C 264.390 283.954,264.240 298.034,264.008 298.400 C 263.674 298.929,256.124 299.000,200.000 299.000 C 143.876 299.000,136.326 298.929,135.992 298.400 C 135.760 298.034,135.610 283.982,135.606 262.321 L 135.600 226.841 136.509 225.861 C 137.009 225.321,138.134 224.686,139.009 224.450 C 139.884 224.213,141.313 223.655,142.185 223.210 C 143.056 222.764,144.008 222.400,144.301 222.400 C 144.593 222.400,145.538 222.040,146.400 221.600 C 147.262 221.160,148.387 220.800,148.899 220.800 C 149.412 220.800,150.531 220.443,151.386 220.007 C 152.241 219.571,153.894 219.038,155.060 218.823 C 156.226 218.607,157.680 218.178,158.290 217.870 C 158.901 217.561,160.311 217.193,161.425 217.051 C 162.538 216.909,164.469 216.434,165.715 215.996 C 166.961 215.558,168.570 215.198,169.290 215.195 C 170.011 215.192,172.275 214.844,174.321 214.422 C 176.368 213.999,180.868 213.443,184.321 213.185 C 187.775 212.927,192.040 212.578,193.800 212.411 C 198.502 211.963,200.980 211.956,205.631 212.378 " stroke="none" fill="#78b7da" fill-rule="evenodd"></path><path id="path3" d="M197.300 95.897 C 198.785 95.974,201.215 95.974,202.700 95.897 C 204.185 95.820,202.970 95.757,200.000 95.757 C 197.030 95.757,195.815 95.820,197.300 95.897 M187.800 96.800 C 187.402 97.240,186.519 97.627,185.838 97.660 C 184.667 97.717,184.658 97.729,185.673 97.884 C 186.264 97.974,187.337 97.743,188.058 97.370 C 188.779 96.997,190.276 96.559,191.385 96.396 L 193.400 96.100 190.962 96.050 C 188.992 96.010,188.385 96.153,187.800 96.800 M208.800 96.394 C 209.790 96.552,211.294 96.988,212.141 97.363 C 212.989 97.738,214.159 97.972,214.741 97.883 L 215.800 97.720 214.663 97.660 C 214.038 97.627,213.069 97.240,212.509 96.800 C 211.741 96.195,210.943 96.013,209.246 96.053 L 207.000 96.107 208.800 96.394 M182.000 98.800 C 180.813 99.830,181.445 99.830,183.000 98.800 C 183.749 98.304,183.960 98.004,183.561 98.003 C 183.210 98.001,182.507 98.360,182.000 98.800 M217.000 98.800 C 218.574 99.842,219.616 99.842,218.291 98.800 C 217.731 98.360,216.942 98.001,216.537 98.003 C 215.975 98.005,216.085 98.194,217.000 98.800 M178.177 100.167 C 177.750 100.479,177.546 100.879,177.722 101.056 C 177.899 101.232,178.174 101.166,178.333 100.908 C 178.492 100.651,179.068 100.262,179.611 100.045 C 180.489 99.695,180.507 99.648,179.776 99.625 C 179.324 99.611,178.604 99.855,178.177 100.167 M220.800 100.320 C 221.570 100.715,222.290 100.970,222.399 100.887 C 222.765 100.608,221.059 99.600,220.224 99.601 C 219.606 99.601,219.749 99.781,220.800 100.320 M175.300 101.688 C 174.805 101.927,174.400 102.284,174.400 102.482 C 174.400 102.679,173.770 103.104,173.000 103.426 C 172.230 103.748,171.600 104.188,171.600 104.405 C 171.600 104.622,171.333 104.800,171.007 104.800 C 169.849 104.800,160.400 114.150,160.400 115.296 C 160.400 115.683,160.142 116.000,159.827 116.000 C 159.512 116.000,159.127 116.405,158.972 116.900 C 158.817 117.395,158.265 118.309,157.745 118.931 C 157.225 119.553,156.800 120.364,156.800 120.734 C 156.800 121.105,156.465 121.617,156.056 121.872 C 155.647 122.127,155.199 122.905,155.060 123.601 C 154.921 124.296,154.445 125.325,154.004 125.886 C 153.560 126.450,153.215 127.466,153.234 128.154 L 153.269 129.400 153.601 128.295 C 153.784 127.687,154.308 126.415,154.767 125.469 C 155.225 124.522,155.600 123.556,155.600 123.323 C 155.600 123.089,155.880 122.665,156.223 122.381 C 156.566 122.096,157.115 121.309,157.445 120.632 C 158.698 118.051,159.596 116.634,160.187 116.303 C 160.524 116.115,160.800 115.737,160.800 115.463 C 160.800 114.985,167.190 108.249,169.214 106.594 C 170.159 105.821,170.985 105.266,175.369 102.460 C 177.247 101.258,177.203 100.770,175.300 101.688 M223.480 101.605 C 223.963 101.800,224.683 102.255,225.080 102.616 C 225.476 102.977,226.708 103.841,227.818 104.536 C 231.262 106.692,238.868 113.925,239.377 115.526 C 239.529 116.007,239.818 116.400,240.019 116.400 C 240.220 116.400,240.754 117.075,241.207 117.900 C 241.659 118.725,242.467 120.120,243.000 121.000 C 243.534 121.880,244.240 123.140,244.570 123.800 C 245.088 124.839,245.171 124.884,245.184 124.131 C 245.193 123.653,244.750 122.727,244.200 122.073 C 243.650 121.419,243.200 120.605,243.200 120.263 C 243.200 119.921,242.750 119.156,242.200 118.562 C 241.650 117.969,241.200 117.248,241.200 116.961 C 241.200 116.675,240.956 116.296,240.658 116.120 C 240.361 115.944,239.886 115.350,239.604 114.800 C 238.829 113.289,230.468 105.232,229.396 104.963 C 228.880 104.834,228.361 104.474,228.241 104.164 C 228.122 103.854,227.776 103.600,227.472 103.600 C 227.168 103.600,226.354 103.060,225.663 102.400 C 224.972 101.740,224.001 101.211,223.504 101.225 L 222.600 101.251 223.480 101.605 M245.200 125.576 C 245.200 125.783,245.377 126.062,245.594 126.196 C 245.810 126.330,246.154 127.016,246.358 127.720 L 246.728 129.000 246.764 127.729 C 246.784 127.029,246.517 126.174,246.171 125.829 C 245.450 125.107,245.200 125.042,245.200 125.576 M246.832 130.169 C 246.814 130.591,247.079 131.245,247.419 131.621 C 247.760 131.997,248.187 133.451,248.368 134.853 L 248.699 137.400 248.749 134.700 C 248.790 132.548,248.648 131.848,248.050 131.250 C 247.638 130.838,247.202 130.253,247.082 129.950 C 246.938 129.588,246.852 129.662,246.832 130.169 M152.239 130.922 C 151.688 131.325,151.503 132.170,151.386 134.818 L 151.237 138.200 151.718 135.152 C 151.983 133.476,152.451 131.807,152.757 131.443 C 153.476 130.588,153.147 130.258,152.239 130.922 M249.084 141.000 C 249.476 144.485,249.473 146.389,249.070 149.200 L 248.754 151.400 249.613 150.106 C 250.756 148.382,250.667 140.853,249.484 139.200 C 248.778 138.214,248.773 138.239,249.084 141.000 M150.436 139.357 C 149.709 140.233,149.692 148.728,150.415 150.000 L 150.982 151.000 151.126 150.049 C 151.205 149.525,151.075 148.327,150.838 147.386 C 150.529 146.158,150.531 144.753,150.846 142.413 C 151.306 138.994,151.227 138.404,150.436 139.357 M151.301 153.000 C 151.305 153.880,151.387 154.193,151.483 153.695 C 151.579 153.198,151.575 152.478,151.475 152.095 C 151.375 151.713,151.296 152.120,151.301 153.000 M248.477 154.606 C 248.434 155.728,248.038 157.286,247.579 158.143 C 246.506 160.146,246.741 160.762,247.920 159.037 C 248.695 157.904,248.818 157.290,248.697 155.146 C 248.566 152.819,248.548 152.772,248.477 154.606 M151.650 156.638 C 151.611 158.210,151.783 158.841,152.400 159.400 C 153.304 160.218,153.609 159.369,152.728 158.488 C 152.468 158.228,152.131 157.247,151.978 156.308 L 151.700 154.600 151.650 156.638 M153.241 161.822 C 153.217 162.550,153.604 163.593,154.200 164.400 C 154.750 165.145,155.200 166.139,155.200 166.608 C 155.200 167.077,155.679 167.897,156.265 168.430 C 157.270 169.346,157.242 168.922,156.210 167.600 C 155.953 167.270,155.501 166.235,155.207 165.300 C 154.913 164.365,154.539 163.600,154.376 163.600 C 154.213 163.600,153.900 162.925,153.681 162.100 C 153.289 160.623,153.282 160.619,153.241 161.822 M246.460 161.871 C 246.427 162.351,246.130 163.013,245.800 163.343 C 245.121 164.022,245.007 164.800,245.586 164.800 C 246.226 164.800,246.860 163.231,246.685 162.080 C 246.556 161.239,246.507 161.193,246.460 161.871 M244.505 166.259 C 244.233 166.886,243.472 168.210,242.813 169.200 C 242.155 170.190,241.427 171.430,241.197 171.956 C 240.793 172.875,239.586 174.518,238.078 176.200 C 236.638 177.806,236.282 178.400,236.761 178.400 C 237.013 178.400,237.391 177.950,237.600 177.400 C 237.809 176.850,238.255 176.400,238.590 176.400 C 238.926 176.400,239.200 176.161,239.200 175.870 C 239.200 175.578,239.641 174.925,240.179 174.419 C 240.718 173.914,241.272 172.982,241.411 172.350 C 241.550 171.717,241.838 171.200,242.052 171.200 C 242.266 171.200,242.703 170.615,243.024 169.900 C 243.345 169.185,243.983 168.128,244.443 167.552 C 244.903 166.975,245.216 166.192,245.139 165.811 C 245.034 165.285,244.881 165.393,244.505 166.259 M157.200 170.102 C 157.200 170.464,157.436 170.904,157.723 171.080 C 158.011 171.256,158.486 171.992,158.778 172.715 C 159.071 173.439,159.645 174.210,160.055 174.429 C 160.465 174.649,160.800 175.085,160.800 175.400 C 160.800 175.715,161.148 176.158,161.573 176.386 C 161.998 176.613,162.454 177.140,162.586 177.556 C 162.718 177.973,163.226 178.414,163.713 178.537 C 164.473 178.728,164.509 178.691,163.964 178.280 C 163.069 177.605,159.200 172.906,159.200 172.495 C 159.200 172.308,158.750 171.545,158.200 170.800 C 157.555 169.926,157.200 169.678,157.200 170.102 M235.081 179.439 C 234.490 180.230,234.467 180.400,234.954 180.400 C 235.280 180.400,235.665 180.026,235.810 179.570 C 236.187 178.380,235.911 178.330,235.081 179.439 M164.400 179.615 C 164.400 179.868,164.743 180.165,165.163 180.274 C 165.583 180.384,166.016 180.817,166.126 181.237 C 166.235 181.657,166.532 182.000,166.785 182.000 C 167.381 182.000,166.382 180.543,165.237 179.741 C 164.679 179.350,164.400 179.308,164.400 179.615 M233.281 181.218 C 232.972 181.713,232.946 182.000,233.209 182.000 C 233.438 182.000,233.732 181.722,233.862 181.383 C 234.222 180.445,233.833 180.334,233.281 181.218 M167.870 182.745 C 167.983 183.178,168.509 183.641,169.038 183.774 C 169.567 183.907,170.000 184.182,170.000 184.386 C 170.000 184.901,174.138 187.600,174.927 187.600 C 175.282 187.600,175.763 187.958,175.997 188.395 C 176.232 188.833,176.913 189.307,177.512 189.449 C 178.110 189.591,178.870 189.928,179.200 190.197 C 179.970 190.826,182.273 191.600,183.371 191.600 C 183.839 191.600,184.530 191.960,184.907 192.400 C 185.467 193.054,186.049 193.191,188.096 193.151 L 190.600 193.102 188.286 192.764 C 187.013 192.578,185.578 192.150,185.097 191.813 C 184.616 191.476,183.839 191.200,183.371 191.200 C 182.902 191.200,181.673 190.750,180.638 190.200 C 179.604 189.650,178.525 189.200,178.241 189.200 C 177.957 189.200,177.201 188.750,176.562 188.200 C 175.923 187.651,175.113 187.201,174.762 187.200 C 174.411 187.200,173.798 186.840,173.400 186.400 C 173.002 185.960,172.508 185.600,172.302 185.600 C 172.096 185.600,170.968 184.780,169.796 183.779 C 168.244 182.453,167.720 182.171,167.870 182.745 M231.493 182.800 C 230.968 183.413,230.937 183.600,231.357 183.600 C 231.659 183.600,232.001 183.240,232.116 182.800 C 232.231 182.360,232.292 182.000,232.251 182.000 C 232.211 182.000,231.870 182.360,231.493 182.800 M229.371 184.416 C 228.344 185.503,225.698 187.200,225.031 187.200 C 224.738 187.200,224.272 187.472,223.996 187.805 C 223.330 188.608,218.823 190.741,217.138 191.051 C 216.402 191.187,215.359 191.573,214.821 191.910 C 214.282 192.247,212.842 192.651,211.621 192.809 L 209.400 193.095 211.900 193.148 C 213.882 193.189,214.560 193.040,215.171 192.429 C 215.595 192.005,216.767 191.534,217.776 191.383 C 218.784 191.231,220.041 190.769,220.568 190.354 C 221.095 189.939,221.821 189.600,222.182 189.600 C 222.543 189.600,223.235 189.178,223.719 188.662 C 224.204 188.146,225.100 187.602,225.710 187.452 C 226.321 187.302,227.176 186.824,227.610 186.390 C 228.045 185.955,228.641 185.600,228.936 185.600 C 229.230 185.600,229.677 185.150,229.927 184.600 C 230.480 183.387,230.377 183.353,229.371 184.416 M192.206 194.060 C 194.604 195.354,205.396 195.354,207.794 194.060 C 209.618 193.076,208.718 192.889,206.538 193.800 C 205.527 194.223,203.653 194.400,200.201 194.400 C 196.868 194.400,194.757 194.208,193.600 193.800 C 191.121 192.925,190.364 193.066,192.206 194.060 M184.600 211.089 C 184.160 211.198,183.590 211.456,183.334 211.664 C 183.078 211.871,181.728 212.204,180.334 212.403 L 177.800 212.765 180.735 212.576 C 182.349 212.473,185.319 212.101,187.335 211.751 C 191.496 211.027,211.224 211.174,214.200 211.950 C 215.080 212.180,217.330 212.456,219.200 212.563 C 222.427 212.748,222.468 212.740,220.000 212.415 C 218.570 212.227,216.860 211.787,216.200 211.439 C 215.027 210.819,186.962 210.509,184.600 211.089 M170.800 213.600 C 169.765 214.498,170.190 214.631,171.874 213.935 C 172.493 213.679,173.900 213.344,175.000 213.191 L 177.000 212.913 174.361 212.856 C 172.243 212.811,171.540 212.958,170.800 213.600 M224.800 213.082 C 225.570 213.166,227.067 213.516,228.126 213.858 C 229.185 214.201,230.160 214.373,230.293 214.241 C 230.425 214.108,230.253 214.000,229.909 214.000 C 229.566 214.000,229.182 213.730,229.055 213.400 C 228.878 212.939,228.197 212.815,226.113 212.864 C 224.621 212.899,224.030 212.997,224.800 213.082 M162.827 215.173 C 162.402 215.598,161.457 216.019,160.727 216.109 L 159.400 216.272 160.811 216.336 C 161.587 216.371,162.645 216.104,163.162 215.742 C 163.678 215.380,165.114 214.953,166.351 214.794 L 168.600 214.505 166.100 214.452 C 164.116 214.411,163.440 214.560,162.827 215.173 M233.649 214.794 C 234.886 214.953,236.322 215.380,236.838 215.742 C 237.355 216.104,238.233 216.375,238.789 216.346 C 239.773 216.293,239.775 216.286,238.868 216.114 C 238.355 216.016,237.590 215.590,237.168 215.168 C 236.560 214.560,235.879 214.411,233.900 214.452 L 231.400 214.505 233.649 214.794 M155.400 217.200 C 154.360 217.889,154.311 217.995,155.033 217.997 C 155.492 217.999,156.000 217.865,156.162 217.700 C 156.324 217.535,157.029 217.189,157.729 216.930 L 159.000 216.461 157.800 216.433 C 157.140 216.418,156.060 216.763,155.400 217.200 M242.600 217.044 C 244.987 217.952,245.600 218.118,245.600 217.857 C 245.600 217.387,243.214 216.400,242.120 216.418 C 241.092 216.434,241.132 216.485,242.600 217.044 M150.500 218.412 C 150.005 218.611,149.600 218.949,149.600 219.163 C 149.600 219.376,148.745 219.667,147.700 219.809 C 144.942 220.184,144.400 220.385,144.400 221.036 C 144.400 221.541,144.520 221.543,145.300 221.054 C 145.795 220.744,146.920 220.366,147.800 220.215 C 148.680 220.064,149.802 219.682,150.293 219.366 C 150.785 219.049,151.865 218.631,152.693 218.435 L 154.200 218.080 152.800 218.066 C 152.030 218.057,150.995 218.213,150.500 218.412 M247.369 218.416 C 248.231 218.636,249.181 219.018,249.478 219.265 C 249.776 219.512,250.138 219.595,250.283 219.450 C 250.819 218.914,249.614 218.305,247.735 218.163 L 245.800 218.017 247.369 218.416 M252.000 220.031 C 252.770 220.262,253.919 220.715,254.554 221.038 C 255.918 221.732,256.298 221.555,255.390 220.648 C 255.034 220.291,254.261 219.998,253.671 219.995 C 253.082 219.992,252.150 219.904,251.600 219.800 C 251.050 219.696,251.230 219.800,252.000 220.031 M141.000 221.888 C 140.560 221.995,139.898 222.350,139.529 222.677 C 139.159 223.005,138.084 223.446,137.138 223.658 C 136.193 223.871,135.283 224.260,135.116 224.522 C 134.516 225.466,134.738 299.451,135.342 299.952 C 135.741 300.283,153.061 300.376,200.442 300.301 L 265.000 300.200 265.078 299.000 C 265.152 297.882,265.137 297.869,264.860 298.800 L 264.564 299.800 200.424 299.901 C 153.352 299.976,136.141 299.883,135.742 299.552 C 134.713 298.698,134.964 225.836,136.000 224.800 C 136.440 224.360,137.122 224.000,137.515 224.000 C 137.909 224.000,138.944 223.632,139.815 223.182 C 140.687 222.732,142.030 222.210,142.800 222.022 C 144.168 221.688,144.173 221.681,143.000 221.687 C 142.340 221.690,141.440 221.781,141.000 221.888 M257.800 222.141 C 258.680 222.447,259.940 222.989,260.600 223.346 C 261.260 223.703,262.084 223.996,262.430 223.998 C 263.101 224.000,264.553 225.402,264.918 226.400 C 265.043 226.743,265.150 226.539,265.168 225.923 C 265.204 224.716,263.952 223.600,262.565 223.600 C 262.094 223.600,261.258 223.246,260.708 222.813 C 260.158 222.381,258.918 221.927,257.954 221.806 L 256.200 221.585 257.800 222.141 " stroke="none" fill="#5cacd4" fill-rule="evenodd"></path><path id="path4" d="M0.000 399.200 C 0.000 399.999,0.267 400.000,200.000 400.000 C 399.733 400.000,400.000 399.999,400.000 399.200 C 400.000 398.401,399.733 398.400,200.000 398.400 C 0.267 398.400,0.000 398.401,0.000 399.200 " stroke="none" fill="#2484b4" fill-rule="evenodd"></path></g></svg>