<svg xmlns="http://www.w3.org/2000/svg" fill="none" viewBox="0 0 500 500"><path fill="#618E4A" fill-rule="evenodd" d="M329 79s-40-14-61-15c-71-5-127 21-167 81-28 43-35 91-27 141a182 182 0 00255 135v10s1 6 6 6h87c5 0 6-1 6-6a54494 54494 0 010-361c0-5-1-6-5-6h-90c-3 0-4 0-4 4v11zm1 110c14 19 20 39 20 63 1 46-35 92-84 99-30 4-56-4-79-24a98 98 0 01-32-60c-4-22-2-43 9-63a97 97 0 01166-15z" clip-rule="evenodd"/><path fill="#A2C93A" fill-rule="evenodd" d="M352 253c1 46-37 93-86 100-30 4-56-5-79-25-18-16-31-37-34-61-4-22 0-45 11-65 14-28 37-44 67-52 38-9 78 6 101 38 14 19 20 41 20 65zm-36-3c0-36-28-65-63-66-36 0-64 29-65 65 0 36 28 66 63 66 36 1 64-28 65-65z" clip-rule="evenodd"/><path fill="#965526" fill-rule="evenodd" d="M349 140l-1-29c0-4 2-6 6-6h42c4 0 6 2 6 6v278c0 4-1 6-6 6h-42c-5 0-6-2-6-6l1-29-15 13c-28 22-60 31-96 28-38-3-70-17-97-45-22-24-35-52-39-84-3-24-2-48 6-71 9-28 24-51 46-70 18-15 39-25 62-30 42-7 81-2 116 25l17 14zm1 112c0-24-6-43-20-62a95 95 0 00-99-39c-30 8-52 25-66 53-11 20-13 41-9 63 3 24 14 44 32 60 23 20 49 28 79 24 49-7 84-53 83-99z" clip-rule="evenodd"/></svg>