<svg width="500" height="500" viewBox="0 0 500 500" fill="none" xmlns="http://www.w3.org/2000/svg">
    <circle cx="250" cy="250" r="185" fill="#618E4A" />
    <path d="M189.766 348V143.25H247.562C265.375 143.25 281.125 147.188 294.812 155.062C308.5 162.938 319.047 174.141 326.453 188.672C333.953 203.203 337.75 219.891 337.844 238.734V251.812C337.844 271.125 334.094 288.047 326.594 302.578C319.188 317.109 308.547 328.266 294.672 336.047C280.891 343.828 264.812 347.812 246.438 348H189.766ZM216.766 165.469V325.922H245.172C265.984 325.922 282.156 319.453 293.688 306.516C305.312 293.578 311.125 275.156 311.125 251.25V239.297C311.125 216.047 305.641 198 294.672 185.156C283.797 172.219 268.328 165.656 248.266 165.469H216.766Z" fill="white" />
</svg>
