<svg width="500" height="500" viewBox="0 0 500 500" fill="none" xmlns="http://www.w3.org/2000/svg">
    <circle cx="250" cy="250" r="185" fill="#618E4A" />
    <path d="M325.938 323.141C319 333.078 309.297 340.531 296.828 345.5C284.453 350.375 270.016 352.812 253.516 352.812C236.828 352.812 222.016 348.922 209.078 341.141C196.141 333.266 186.109 322.109 178.984 307.672C171.953 293.234 168.344 276.5 168.156 257.469V239.609C168.156 208.766 175.328 184.859 189.672 167.891C204.109 150.922 224.359 142.438 250.422 142.438C271.797 142.438 289 147.922 302.031 158.891C315.062 169.766 323.031 185.234 325.938 205.297H298.938C293.875 178.203 277.75 164.656 250.562 164.656C232.469 164.656 218.734 171.031 209.359 183.781C200.078 196.438 195.391 214.812 195.297 238.906V255.641C195.297 278.609 200.547 296.891 211.047 310.484C221.547 323.984 235.75 330.734 253.656 330.734C263.781 330.734 272.641 329.609 280.234 327.359C287.828 325.109 294.109 321.312 299.078 315.969V269.984H251.688V248.047H325.938V323.141Z" fill="white" />
</svg>
