<svg xmlns="http://www.w3.org/2000/svg" fill="none" viewBox="0 0 500 500"><path fill="#A1C939" fill-rule="evenodd" d="M334 252c2 37-29 72-65 80a85 85 0 01-102-67c-4-31 4-57 27-78 31-28 82-28 112 0 19 18 28 38 28 65z" clip-rule="evenodd"/><path fill="#618E4A" fill-rule="evenodd" d="M259 437c-92 0-166-55-189-136-24-83 16-170 89-215a187 187 0 11100 351zm120-201c-5-37-16-63-47-86-28-23-60-33-96-29-34 3-60 17-83 43-26 30-36 58-32 97a129 129 0 00221 83c32-31 43-66 37-108z" clip-rule="evenodd"/><path fill="#965526" fill-rule="evenodd" d="M383 250c0 38-13 71-41 98-21 19-46 31-75 35-40 4-75-6-105-33-26-23-41-51-45-85-4-39 7-74 33-104 23-26 52-41 86-44 36-4 68 5 96 28 31 23 46 54 51 91v14zm-54 2c1-25-8-45-26-61a79 79 0 00-131 73c6 44 52 74 96 64 34-8 63-41 61-76z" clip-rule="evenodd"/></svg>