<svg width="500" height="500" viewBox="0 0 500 500" fill="none" xmlns="http://www.w3.org/2000/svg">
    <circle cx="250" cy="250" r="185" fill="#618E4A" />
    <path d="M254.859 265.172H206.766V348H179.625V143.25H247.406C270.469 143.25 288.188 148.5 300.562 159C313.031 169.5 319.266 184.781 319.266 204.844C319.266 217.594 315.797 228.703 308.859 238.172C302.016 247.641 292.453 254.719 280.172 259.406L328.266 346.312V348H299.297L254.859 265.172ZM206.766 243.094H248.25C261.656 243.094 272.297 239.625 280.172 232.688C288.141 225.75 292.125 216.469 292.125 204.844C292.125 192.188 288.328 182.484 280.734 175.734C273.234 168.984 262.359 165.562 248.109 165.469H206.766V243.094Z" fill="white" />
</svg>
