<svg width="500" height="500" viewBox="0 0 500 500" fill="none" xmlns="http://www.w3.org/2000/svg">
    <circle cx="250" cy="250" r="185" fill="#618E4A" />
    <path d="M248.094 266.734C224.938 260.078 208.062 251.922 197.469 242.266C186.969 232.516 181.719 220.516 181.719 206.266C181.719 190.141 188.141 176.828 200.984 166.328C213.922 155.734 230.703 150.438 251.328 150.438C265.391 150.438 277.906 153.156 288.875 158.594C299.938 164.031 308.469 171.531 314.469 181.094C320.562 190.656 323.609 201.109 323.609 212.453H296.469C296.469 200.078 292.531 190.375 284.656 183.344C276.781 176.219 265.672 172.656 251.328 172.656C238.016 172.656 227.609 175.609 220.109 181.516C212.703 187.328 209 195.438 209 205.844C209 214.188 212.516 221.266 219.547 227.078C226.672 232.797 238.719 238.047 255.688 242.828C272.75 247.609 286.062 252.906 295.625 258.719C305.281 264.438 312.406 271.141 317 278.828C321.688 286.516 324.031 295.562 324.031 305.969C324.031 322.562 317.562 335.875 304.625 345.906C291.688 355.844 274.391 360.812 252.734 360.812C238.672 360.812 225.547 358.141 213.359 352.797C201.172 347.359 191.75 339.953 185.094 330.578C178.531 321.203 175.25 310.562 175.25 298.656H202.391C202.391 311.031 206.938 320.828 216.031 328.047C225.219 335.172 237.453 338.734 252.734 338.734C266.984 338.734 277.906 335.828 285.5 330.016C293.094 324.203 296.891 316.281 296.891 306.25C296.891 296.219 293.375 288.484 286.344 283.047C279.312 277.516 266.562 272.078 248.094 266.734Z" fill="white" />
</svg>
