<svg width="500" height="500" viewBox="0 0 500 500" fill="none" xmlns="http://www.w3.org/2000/svg">
    <circle cx="250" cy="250" r="185" fill="#618E4A" />
    <path d="M248.094 262.734C224.938 256.078 208.062 247.922 197.469 238.266C186.969 228.516 181.719 216.516 181.719 202.266C181.719 186.141 188.141 172.828 200.984 162.328C213.922 151.734 230.703 146.438 251.328 146.438C265.391 146.438 277.906 149.156 288.875 154.594C299.938 160.031 308.469 167.531 314.469 177.094C320.562 186.656 323.609 197.109 323.609 208.453H296.469C296.469 196.078 292.531 186.375 284.656 179.344C276.781 172.219 265.672 168.656 251.328 168.656C238.016 168.656 227.609 171.609 220.109 177.516C212.703 183.328 209 191.438 209 201.844C209 210.188 212.516 217.266 219.547 223.078C226.672 228.797 238.719 234.047 255.688 238.828C272.75 243.609 286.062 248.906 295.625 254.719C305.281 260.438 312.406 267.141 317 274.828C321.688 282.516 324.031 291.562 324.031 301.969C324.031 318.562 317.562 331.875 304.625 341.906C291.688 351.844 274.391 356.812 252.734 356.812C238.672 356.812 225.547 354.141 213.359 348.797C201.172 343.359 191.75 335.953 185.094 326.578C178.531 317.203 175.25 306.562 175.25 294.656H202.391C202.391 307.031 206.938 316.828 216.031 324.047C225.219 331.172 237.453 334.734 252.734 334.734C266.984 334.734 277.906 331.828 285.5 326.016C293.094 320.203 296.891 312.281 296.891 302.25C296.891 292.219 293.375 284.484 286.344 279.047C279.312 273.516 266.562 268.078 248.094 262.734Z" fill="white" />
</svg>
