<svg width="500" height="500" viewBox="0 0 500 500" fill="none" xmlns="http://www.w3.org/2000/svg">
    <circle cx="250" cy="250" r="185" fill="#618E4A" />
    <path d="M323.906 149.25V288.469C323.812 307.781 317.719 323.578 305.625 335.859C293.625 348.141 277.312 355.031 256.688 356.531L249.516 356.812C227.109 356.812 209.25 350.766 195.938 338.672C182.625 326.578 175.875 309.938 175.688 288.75V149.25H202.406V287.906C202.406 302.719 206.484 314.25 214.641 322.5C222.797 330.656 234.422 334.734 249.516 334.734C264.797 334.734 276.469 330.656 284.531 322.5C292.688 314.344 296.766 302.859 296.766 288.047V149.25H323.906Z" fill="white" />
</svg>
