<svg width="140" height="140" fill="none" xmlns="http://www.w3.org/2000/svg"><rect width="140" height="140" rx="18" fill="#FFF1EA"/><path fill-rule="evenodd" clip-rule="evenodd" d="M68.8 43.3c.7-.4 1.7-.4 2.4 0l34.2 17A2.8 2.8 0 0 1 107 63v20.5a2.8 2.8 0 1 1-5.5 0v-16l-30.3 15c-.7.5-1.7.5-2.4 0l-34.3-17a2.8 2.8 0 0 1 0-5l34.3-17.1ZM98 62.9l-28-14-28 14 28 14 28-14Z" fill="#EA580C"/><path fill-rule="evenodd" clip-rule="evenodd" d="M49.5 67c1.5 0 2.7 1.2 2.7 2.7v16c4.5 4 11 6 17.8 6a27 27 0 0 0 17.8-6v-16a2.8 2.8 0 0 1 5.5 0v17.1c0 .8-.3 1.5-.8 2A32 32 0 0 1 70 97.3a32 32 0 0 1-22.5-8.5c-.5-.5-.8-1.2-.8-2v-17c0-1.6 1.2-2.8 2.8-2.8Z" fill="#EA580C"/></svg>