<svg xmlns="http://www.w3.org/2000/svg" width="140" height="140" viewBox="0 0 140 140" fill="none">
  <rect width="140" height="140" fill="#EBFBEE" rx="18"></rect>
  <path fill="#82C68F" d="M100.567 68.253c0 2.6 0 5.2-.632 7.15-.633 1.95-1.265 4.551-2.53 6.501-1.265 2.6-2.53 4.55-4.428 6.501-1.898 1.95-3.796 3.9-5.693 5.2-2.53 1.3-5.06 2.6-7.591 3.25-2.53.65-5.06 1.301-7.59 1.301s-4.429 0-6.959-.65c-1.897-.65-3.163-1.3-5.06-1.95l-15.814 5.2c-1.898.65-3.163 0-3.796-1.95-.632-.65-.632-1.3 0-1.95l5.06-16.252c-.632-1.95-1.264-3.25-1.897-5.2 0-2.6-.632-4.55-.632-7.151 0-2.6.632-5.2 1.265-7.8.632-2.601 1.897-5.201 3.163-7.152 1.265-2.6 3.162-4.55 5.06-6.5 1.898-1.95 4.428-3.25 6.326-4.55 2.53-1.3 4.428-1.95 6.325-2.6C67.674 39 69.572 39 72.102 39H74c3.163 0 6.325 1.3 9.488 2.6 3.163 1.3 6.326 3.25 8.856 5.85 2.53 2.601 4.428 5.851 5.693 9.102 1.265 3.25 2.53 6.5 2.53 10.4v1.3zm-6.325 5.85c0-1.95.632-3.9.632-5.85v-1.3c-.632-2.6-1.265-5.2-2.53-7.801-.632-2.6-2.53-5.2-4.428-7.15-1.897-1.95-4.428-3.901-6.958-4.551-1.898-1.3-5.06-1.95-7.59-1.95h-1.266c-1.897 0-3.795 0-5.06.65h-.633c-1.265 0-3.163.65-4.428 1.3-1.897 1.3-3.795 2.6-5.06 3.9h-.633c-1.265 1.3-2.53 3.25-3.795 5.2-1.265 1.3-1.898 3.251-2.53 5.851-.633 1.95-.633 3.9-.633 5.85 0 1.951 0 3.901.633 5.851 0 1.3.632 3.25 1.898 5.201v1.95l-3.796 11.701 11.386-3.9c.633 0 1.265 0 2.53.65s3.163 1.3 4.428 1.3c1.898.65 3.796.65 5.693.65 1.898 0 3.796 0 5.693-.65 2.53-.65 4.428-1.3 6.326-2.6 1.265-1.3 3.163-2.6 4.428-3.9 1.265-1.95 2.53-3.25 3.795-5.2.633-1.951 1.265-3.901 1.898-5.202zM52.493 46.801c1.265-1.3 3.163-1.3 4.428 0h-4.428z"></path>
</svg>