<svg xmlns="http://www.w3.org/2000/svg" width="140" height="140" viewBox="0 0 140 140" fill="none">
  <rect width="140" height="140" fill="#EBF8FF" rx="18"></rect>
  <path fill="#4299E1" d="M36.476 68.207S48.53 43 70.738 43C92.31 43 104.366 68.207 105 68.207v2.586C104.366 70.793 92.31 96 70.738 96 48.53 96 36.476 70.793 36.476 70.793c-.635-.647-.635-1.94 0-2.586zm34.262-19.39c-15.862 0-26.014 16.159-28.552 20.683 2.538 4.524 12.69 20.683 28.552 20.683S96.752 74.024 99.29 69.5c-2.538-4.524-12.69-20.683-28.552-20.683z"></path>
  <path fill="#4299E1" d="M76.383 69c0-1.833-.607-3.056-1.82-4.278-.607-.61-2.428-1.222-3.641-1.222-1.82 0-3.034.611-4.248 1.222-1.213 1.222-1.82 2.445-1.82 4.278 0 1.222.607 3.056 1.82 3.667 1.214 1.222 2.428 1.833 4.248 1.833 1.214 0 3.034-.611 3.64-1.833 1.214-.611 1.821-2.445 1.821-3.667zm1.82-7.944c2.427 1.833 3.641 4.888 3.641 7.944s-1.214 5.5-3.64 7.944C76.382 78.778 73.955 80 70.921 80s-6.068-1.222-7.888-3.056C61.214 74.5 60 72.056 60 69s1.214-5.5 3.034-7.944C64.854 59.222 67.888 58 70.922 58s5.461 1.222 7.281 3.056z"></path>
</svg>