<svg xmlns="http://www.w3.org/2000/svg" width="140" height="140" viewBox="0 0 140 140" fill="none"><rect width="140" height="140" fill="#FDEBE9" rx="18"></rect><path fill="#F64754" fillRule="evenodd" d="M60.824 41c-2.471 0-4.942 1.25-6.589 3.748-1.647 2.082-2.47 4.998-2.47 7.913s.823 5.83 2.47 7.913 4.118 3.748 6.589 3.748c2.882 0 5.353-1.666 6.588-3.748 1.647-2.083 2.47-4.998 2.47-7.913s-.823-5.83-2.47-7.913C66.176 42.25 63.706 41 60.823 41zm9.058 11.66c0 2.916.824 5.831 2.47 7.914 1.236 2.082 3.707 3.748 6.59 3.748 2.47 0 4.94-1.666 6.587-3.748S88 55.576 88 52.66s-.824-5.83-2.47-7.913C83.881 42.25 81.411 41 78.94 41c-2.882 0-5.353 1.25-6.588 3.748-1.647 2.082-2.47 4.998-2.47 7.913zm-9.059-6.662c.824 0 1.648.416 2.471 1.665.824 1.25 1.647 2.916 1.647 4.998 0 2.082-.823 3.748-1.647 4.997-.823.833-1.647 1.25-2.47 1.25-.824 0-1.648-.417-2.471-1.25-.824-1.249-1.235-2.915-1.235-4.997s.411-3.748 1.235-4.998c.823-1.249 1.647-1.666 2.47-1.666zm18.118 0c.824 0 1.647.416 2.47 1.665.824 1.25 1.236 2.916 1.236 4.998 0 2.082-.412 3.748-1.235 4.997-.824.833-1.647 1.25-2.47 1.25-.824 0-1.648-.417-2.471-1.25-.824-1.249-1.647-2.915-1.647-4.997s.823-3.748 1.647-4.998c.823-1.249 1.647-1.666 2.47-1.666zM48.06 58.907c-2.882 0-4.941 1.666-6.588 3.748C39.824 64.738 39 67.653 39 70.569c0 3.331.824 5.83 2.47 7.912 1.648 2.5 3.706 3.749 6.589 3.749 2.882 0 4.941-1.25 6.588-3.749 1.647-2.082 2.47-4.58 2.47-7.912 0-2.915-.823-5.83-2.47-7.913-1.647-2.082-3.706-3.748-6.588-3.748zm43.647 0c-2.883 0-4.941 1.666-6.588 3.748-1.647 2.082-2.47 4.998-2.47 7.913 0 3.331.823 5.83 2.47 7.912 1.647 2.5 3.706 3.749 6.588 3.749s4.941-1.25 6.588-3.749c1.647-2.082 2.471-4.58 2.471-7.912 0-2.915-.824-5.83-2.47-7.913-1.648-2.082-3.707-3.748-6.59-3.748zm-43.647 5.414c.823 0 1.647.416 2.47 1.25.824 1.249 1.236 3.33 1.236 4.997 0 2.082-.412 4.164-1.236 4.997-.823 1.25-1.647 1.666-2.47 1.666-.824 0-1.647-.416-2.47-1.666-.824-.833-1.236-2.915-1.236-4.997 0-1.666.412-3.748 1.235-4.998.824-.833 1.647-1.25 2.47-1.25zm43.647 0c.823 0 1.647.416 2.47 1.25.824 1.249 1.236 3.33 1.236 4.997 0 2.082-.412 4.164-1.236 4.997-.823 1.25-1.647 1.666-2.47 1.666-.824 0-1.647-.416-2.47-1.666C88.411 74.733 88 72.651 88 70.57c0-1.666.412-3.748 1.235-4.998.824-.833 1.647-1.25 2.47-1.25zm-21.824 4.997c-3.294 0-5.764 2.5-7 4.165a65.388 65.388 0 00-2.47 4.581c-.412.416-2.883 1.25-5.353 2.499-1.647.833-2.882 1.666-3.706 2.915-1.235 1.25-2.059 3.332-2.059 5.414 0 4.998 4.118 9.162 9.059 9.162 2.059 0 4.53-.833 6.588-1.25 2.47-.832 4.941-1.249 4.941-1.249s2.47.417 4.53 1.25c2.47.416 4.94 1.25 7 1.25 4.94 0 9.059-4.165 9.059-9.163 0-2.082-.824-3.748-2.06-5.414-.823-1.25-2.058-2.082-3.705-2.499-2.47-1.666-4.941-2.499-5.353-2.915a65.358 65.358 0 00-2.47-4.581c-1.236-1.666-3.706-4.165-7-4.165zm0 5.414c1.647 0 2.06.417 2.47 1.666.825 1.25 1.648 3.332 3.295 5.414 2.059 2.082 4.941 2.499 7 3.332.824.833 1.647 1.25 2.059 1.666.412.833.412 1.249.412 2.082 0 2.082-1.647 3.748-3.706 3.748-.824 0-3.294-.416-5.353-1.25-2.059-.416-4.118-1.249-6.177-1.249-2.058 0-4.117.833-6.176 1.25-2.059.833-4.53 1.25-5.353 1.25-2.059 0-3.706-1.667-3.706-3.749 0-.833 0-1.666.412-2.082.412-.417 1.235-1.25 2.059-1.666 2.059-.833 4.94-1.25 7-3.332 1.647-2.082 2.47-4.164 3.294-5.414.412-1.25.823-1.666 2.47-1.666z" clipRule="evenodd"></path></svg>