<svg xmlns="http://www.w3.org/2000/svg" width="140" height="140" viewBox="0 0 140 140" fill="none">
  <rect width="140" height="140" fill="#D9FFF7" rx="18"></rect>
  <path fill="#38B2AC" d="M42.336 84.193H86.53c.834 0 1.668.435 2.502.87.417.868.834 1.738.834 2.607v9.56c0 .869-.417 1.738-.834 2.607-.834.435-1.668.869-2.502.869H42.336c-.834 0-1.668-.434-2.085-.869C39.417 98.968 39 98.1 39 97.23v-9.56c0-.87.417-1.739 1.25-2.608.418-.434 1.252-.869 2.085-.869zm42.944 4.78H43.586v6.953H85.28v-6.953zM42.336 39H86.53c.834 0 1.668 0 2.502.87.417.434.834 1.303.834 2.606v9.56c0 .87-.417 1.739-.834 2.173-.834.87-1.668 1.304-2.502 1.304H42.336a2.281 2.281 0 01-2.085-1.304C39.417 53.775 39 52.906 39 52.036v-9.56c0-1.303.417-2.172 1.25-2.607C40.669 39 41.503 39 42.337 39zm42.944 4.78H43.586v6.953H85.28V43.78zM53.176 61.597H97.37c.834 0 1.667.434 2.501.869.417.869.834 1.738.834 2.607v9.56c0 .87-.417 1.738-.834 2.607-.834.435-1.667.87-2.501.87H53.176c-.834 0-1.668-.435-2.085-.87-.834-.869-1.25-1.738-1.25-2.607v-9.56c0-.87.416-1.738 1.25-2.607.417-.435 1.25-.87 2.085-.87zm42.944 4.78H54.426v6.953H96.12v-6.953z"></path>
</svg>