<svg width="84" height="109" fill="none" xmlns="http://www.w3.org/2000/svg"><path d="M84 31.6a9 9 0 0 0-1.9-3L47.6 2.5C43-.8 40.8-.8 36.3 2.5L2 28.6c-.8.9-1.5 2-1.8 3L42 68.3l42-36.7Z" fill="#2B6CB0"/><rect x="10.5" y="7.9" width="63" height="52.5" rx="14" fill="#E2E8F0"/><path d="M21 21.2v5.2h42v-5.2H21Zm0 15.7h42v-5.3H21V37Z" fill="#CBD5E0"/><path d="m42 63 42-31.4v44.5c0 4.4-3.5 7.9-7.9 7.9H8a7.9 7.9 0 0 1-8-7.9V31.6l42 31.5Z" fill="#3182CE"/><path d="m3.1 82.2-.8-.7C1 79.7.8 79 .4 77.8l35.7-30.3c4.6-3.8 7-3.7 11.7 0L83.5 78a8.8 8.8 0 0 1-1.9 3.6l-.8.7a9 9 0 0 1-4.4 1.8h-69A8 8 0 0 1 3 82.2Z" fill="#2B6CB0"/><ellipse cx="42" cy="106.3" rx="32.8" ry="2.3" fill="#CBD5E0"/></svg>