<svg xmlns="http://www.w3.org/2000/svg" width="140" height="140" viewBox="0 0 140 140" fill="none">
  <rect width="140" height="140" fill="#CFFFF5" rx="18"></rect>
  <path fill="#38B2AC" fillRule="evenodd" d="M68.725 51.166c1.634 1.592 2.45 3.583 2.45 5.573 0 2.389-.816 3.981-2.45 5.574-1.224 1.592-3.266 2.388-5.307 2.388-2.45 0-4.492-.796-5.717-2.388-1.633-1.593-2.45-3.185-2.45-5.574 0-1.99.817-3.98 2.45-5.573 1.225-1.194 3.267-1.99 5.716-1.99 2.042 0 4.084.796 5.308 1.99zm7.759 5.573c0-3.583-1.634-6.767-4.084-9.156C69.95 45.194 66.684 44 63.417 44c-3.674 0-7.35 1.194-9.39 3.583-2.45 2.389-4.084 5.573-4.084 9.156s1.633 6.768 4.083 9.157c2.042 2.388 5.717 3.98 9.391 3.98 3.267 0 6.942-1.592 8.983-3.98h.409c2.041-2.389 3.675-5.574 3.675-9.157zm5.806 39.678c1.611 0 2.819-1.186 2.819-2.769v-5.142c0-3.56-1.61-6.724-4.026-9.098-2.416-2.373-5.637-3.56-9.261-3.56H51.287c-3.624 0-6.845 1.187-9.26 3.56h-.403C39.61 81.782 38 84.946 38 88.506v5.142c0 1.583 1.208 2.77 2.818 2.77 1.208 0 2.416-1.188 2.416-2.77v-5.142c0-1.978.806-3.955 2.416-5.538 1.208-1.186 3.221-1.977 5.637-1.977h20.535c2.416 0 4.026.79 5.637 1.977 1.61 1.582 2.416 3.56 2.416 5.538v5.142c0 1.583 1.208 2.77 2.415 2.77zm20.07-2.809c0 1.605-1.357 2.81-3.167 2.81-1.358 0-2.715-1.205-2.715-2.81v-5.216c0-1.605-.905-3.612-1.81-4.815-1.357-1.204-2.715-2.408-4.977-2.81-1.358-.4-2.263-1.604-1.81-3.21.452-1.203 1.81-2.006 3.62-1.604 3.167.802 5.882 2.407 7.692 4.414 1.81 2.407 3.167 5.216 3.167 8.025v5.216zm-23.126-47.87c-.37 1.63.37 2.854 1.48 3.262 1.852.407 2.962 1.63 4.073 2.854.74 1.631 1.48 3.262 1.48 4.894 0 2.039-.74 3.67-1.48 4.893-1.11 1.631-2.221 2.447-4.072 2.855-1.111.407-1.851 2.039-1.481 3.262.37 1.223 1.48 2.447 2.962 2.039 2.591-.816 4.812-2.447 6.293-4.894 1.48-2.039 2.592-4.893 2.592-8.156 0-2.854-1.111-5.708-2.592-8.155-1.48-2.04-3.702-3.67-6.294-4.486-1.48-.408-2.591.408-2.961 1.631z" clipRule="evenodd"></path>
</svg>