<svg width="200" height="100" fill="none" xmlns="http://www.w3.org/2000/svg"><path fill-rule="evenodd" clip-rule="evenodd" d="M88.33 41.913c2.196 0 4.345.395 5.64.752l.11.031.105-.528h8.951v2.937l-1.982.212 2.831 9.941h.247l3.149-12.63h5.342l3.043 12.63h.212l2.654-9.941-2.017-.212.46-2.937h7.43l-.001 1.98c-.161.319-.31.643-.447.973l-.826.16c-.476.069-.691.235-.832.656l-.017.052-4.352 14.612h-5.59l-2.759-11.852h-.213L106.673 60.6h-6.368l-4.458-14.647c-.135-.407-.303-.489-.69-.589l-.052-.013-.313-.067.02.08v2.683l-3.769-.247-.352-1.834c-.035-.282-.106-.423-.352-.493l-.112-.032c-.477-.13-1.265-.25-2.143-.25-1.761 0-2.748.67-2.748 1.798 0 1.233 1.41 1.645 3.158 2.046l1.18.269.163.038c2.67.643 5.504 1.729 5.504 5.65 0 4.301-3.487 6.064-7.961 6.064-3.121 0-6.175-.802-6.92-1.235l-.056-.034v-5.112l3.77.282.352 2.01.011.085c.04.258.125.38.412.443l.083.026.094.028.105.028.121.03c.508.12 1.298.24 2.31.24 1.866 0 2.923-.528 2.923-1.832 0-1.388-1.363-1.82-3.117-2.135l-.803-.145-.342-.065c-2.747-.535-5.777-1.504-5.777-5.588 0-4.372 3.733-6.17 7.784-6.17Zm-32.488 0c5.272 0 7.42 1.417 7.462 6.235v8.765l.002.095.003.084.006.077c.027.264.123.332.456.384l.094.014 1.426.239v-3.13l3.749.282.35 2.01c.034.317.106.458.42.528l.083.026.093.028.105.028.12.03c.506.12 1.292.24 2.298.24 1.856 0 2.907-.528 2.907-1.832 0-1.341-1.267-1.79-2.927-2.103l-.982-.18-.34-.064-.246-.05-.24-.05c-2.588-.561-5.25-1.648-5.25-5.486 0-4.372 3.714-6.17 7.743-6.17 2.674 0 5.284.593 6.342.983l.104.04v5.112l-3.749-.247-.35-1.834c-.034-.282-.105-.423-.35-.493-.455-.14-1.296-.282-2.242-.282-1.752 0-2.733.67-2.733 1.798 0 1.254 1.45 1.659 3.23 2.066l.834.19c2.767.635 5.886 1.622 5.886 5.747 0 4.301-3.468 6.064-7.918 6.064-2.835 0-5.607-.668-6.632-1.114l-.05-.021v.712H59.1l-.35-1.904-.176-.035c-1.33 1.304-3.083 2.362-5.886 2.362-4.414 0-5.115-3.032-5.115-5.218 0-3.49 2.13-5.114 6.421-5.42l4.16-.291v-2.007l-.002-.2-.002-.132-.008-.193-.006-.125c-.081-1.256-.487-2.067-2.33-2.067l-.214.001-.138.003c-1.429.04-2.181.385-2.205 2.268v.09l-4.94-.424c0-4.711 4.224-5.415 7.436-5.43h.097ZM182.787 34l.001 22.845.003.082c.017.307.098.38.454.437l1.755.258v2.76h-6.432l-.346-1.956-.242-.035c-1.452 1.432-3.147 2.41-5.671 2.41-4.08 0-6.708-2.62-6.708-9.294 0-7.024 3.492-9.68 7.331-9.68 1.957 0 3.487.666 4.781 1.608l.094.07v-5.312c0-.33-.124-.568-.401-.68l-.048-.019-1.902-.663.38-2.831h6.951Zm-20.115 7.658c.791 0 2.347.132 3.028.302l.067.018v6.474l-4.268-.142-.356-1.886c-.071-.32-.178-.391-.463-.391-.87 0-1.898.693-2.461 1.16l-.1.085v9.488c.003.499.052.609.521.647l3.57.288v2.846h-11.632v-2.882l1.601-.213c.481-.07.564-.171.569-.661V46.318c0-.374-.097-.618-.416-.732l-.047-.015-1.901-.67-.015-.035.387-2.852h6.26l.427 2.845h.214c1.174-1.814 2.739-3.201 5.016-3.201h-.001ZM39.699 35.02c6.538 0 8.517 3.455 8.517 7.51 0 6.073-3.637 8.553-9.505 8.601l-.178.001h-2.58v5.741l.002.09.005.082c.022.294.113.366.465.42l.094.013 5.053.282v2.785H27.719v-.008l-.015.009H15.41v-2.773l3.012-.247c.458-.032.55-.157.56-.601V44.704c0-.503-.377-.42-3.01.472L15 42.297l6.017-3.447h3.254v18.027l.001.095.003.085c.018.348.106.435.509.467l.048.003 2.872.246.015.008v-.02l2.226-.247c.462-.065.554-.162.565-.604V38.794c0-.511-.066-.66-.517-.702l-.048-.004-2.226-.246V35.02H39.7ZM58.055 52.87l-2.382.174c-2.066.14-2.802.664-2.802 2.062 0 1.398.841 1.922 1.997 1.922 1.155 0 2.31-.625 3.113-1.204l.074-.054v-2.9Zm116.406-6.986c-2.537 0-3.548 2.376-3.569 5.458l-.001.101c0 3.413.971 5.313 3.154 5.313 1.145 0 2.388-.664 3.316-1.444l.081-.069V46.94c-.867-.598-1.976-1.055-2.981-1.055ZM37.947 38.892H35.88v8.421h1.82l.139-.001.203-.005.131-.005.194-.01c2.086-.127 4.133-.919 4.133-4.451 0-3.355-2.067-3.949-4.553-3.949Z" fill="#051627"/><path fill-rule="evenodd" clip-rule="evenodd" d="M122.973 50.847c0 7.895 6.4 14.294 14.294 14.294 7.895 0 14.295-6.4 14.295-14.294 0-7.895-6.4-14.294-14.295-14.294-7.894 0-14.294 6.4-14.294 14.294Z" fill="#fff"/><path fill-rule="evenodd" clip-rule="evenodd" d="M137.267 39.616c6.203 0 11.232 5.028 11.232 11.23 0 6.204-5.029 11.232-11.232 11.232-6.202 0-11.231-5.028-11.231-11.231s5.029-11.231 11.231-11.231Z" fill="#1A8CFF"/><path opacity=".5" d="M122.462 50.847c0 8.177 6.629 14.805 14.805 14.805 8.177 0 14.805-6.628 14.805-14.805s-6.628-14.805-14.805-14.805c-8.176 0-14.805 6.628-14.805 14.805Zm.511 0c0-7.894 6.399-14.294 14.294-14.294 7.896 0 14.295 6.4 14.295 14.294s-6.399 14.294-14.295 14.294c-7.895 0-14.294-6.4-14.294-14.294Z" fill="#000"/><path fill-rule="evenodd" clip-rule="evenodd" d="M151.541 50.081c.014.254.021.51.021.766 0 7.894-6.4 14.294-14.295 14.294-7.894 0-14.294-6.4-14.294-14.294 0-.257.007-.512.02-.766.398 7.538 6.637 13.529 14.274 13.529 7.579 0 13.78-5.898 14.264-13.355l.01-.174Zm-14.274-11.997c6.908 0 12.508 5.6 12.508 12.508 0 3.862-1.751 7.314-4.501 9.609a11.71 11.71 0 0 0 3.735-8.588c0-6.485-5.257-11.742-11.742-11.742-6.484 0-11.741 5.257-11.741 11.742 0 3.39 1.436 6.445 3.734 8.588a12.483 12.483 0 0 1-4.5-9.61c0-6.907 5.6-12.507 12.507-12.507Z" fill="#000" fill-opacity=".052"/><path opacity=".256" d="M137.267 39.616c6.204 0 11.232 5.029 11.232 11.23 0 6.203-5.028 11.232-11.232 11.232-6.141 0-11.13-4.929-11.229-11.045l-.002-.186c0-6.202 5.028-11.231 11.231-11.231Zm0 .51c-5.921 0-10.72 4.8-10.72 10.72 0 5.922 4.799 10.722 10.72 10.722s10.721-4.8 10.721-10.721-4.8-10.72-10.721-10.72Z" fill="#000"/><path d="M137.324 41.913a8.96 8.96 0 0 0-8.991 8.99c0 4.897 4.019 8.878 8.991 8.878 4.877 0 8.877-4 8.877-8.877 0-4.973-3.981-8.991-8.877-8.991Zm0 .51c4.595 0 8.367 3.772 8.367 8.48 0 4.596-3.772 8.367-8.367 8.367-4.709 0-8.48-3.77-8.48-8.367a8.446 8.446 0 0 1 8.48-8.48Z" fill="#000" fill-opacity=".25"/><path fill-rule="evenodd" clip-rule="evenodd" d="M137.324 42.423c4.595 0 8.367 3.772 8.367 8.48 0 4.596-3.772 8.367-8.367 8.367-4.709 0-8.48-3.77-8.48-8.367a8.446 8.446 0 0 1 8.48-8.48Z" fill="#F7F7F7"/><path fill-rule="evenodd" clip-rule="evenodd" d="M141.096 50.847a3.829 3.829 0 1 1-7.658 0 3.829 3.829 0 0 1 7.658 0Z" fill="#000" fill-opacity=".05"/><path d="M137.267 46.508a4.34 4.34 0 1 0 0 8.678 4.34 4.34 0 0 0 0-8.678Zm0 .51a3.829 3.829 0 1 1 0 7.658 3.829 3.829 0 0 1 0-7.658Z" fill="#fff"/><path d="M137.267 47.018a3.829 3.829 0 1 1 0 7.658 3.829 3.829 0 0 1 0-7.658Zm0 .51a3.318 3.318 0 1 0 0 6.637 3.318 3.318 0 0 0 0-6.636Z" fill="#000" fill-opacity=".15"/><path d="M138.691 44.21h-2.847c-.631 0-1.129.553-1.129 1.218v2.755c0 .25.09.493.254.674l.419.465c.009.01.009.04 0 .052l-.419.464a1.005 1.005 0 0 0-.254.675v5.753c0 .665.498 1.218 1.129 1.218h2.847c.631 0 1.129-.553 1.129-1.218V53.51a1.009 1.009 0 0 0-.254-.675l-.419-.464c-.009-.01-.009-.041 0-.052l.419-.464a1.01 1.01 0 0 0 .254-.675v-5.753c0-.665-.498-1.218-1.129-1.218Zm-.033.52c.36 0 .651.33.651.738v5.711a.53.53 0 0 1-.127.348l-.407.46a.54.54 0 0 0 0 .696l.407.461a.524.524 0 0 1 .127.348v2.734c0 .407-.291.737-.651.737h-2.782c-.359 0-.651-.33-.651-.737v-5.712a.53.53 0 0 1 .127-.347l.407-.461a.538.538 0 0 0 0-.696l-.407-.46a.527.527 0 0 1-.127-.348v-2.734c0-.407.292-.738.651-.738h2.782Z" fill="#fff"/><path fill-rule="evenodd" clip-rule="evenodd" d="M135.225 48.197V45.46c0-.408.292-.739.651-.739h2.782c.36 0 .651.33.651.739v5.72a.529.529 0 0 1-.127.348l-.407.462a.542.542 0 0 0 0 .697l.407.461a.525.525 0 0 1 .127.348v2.738c0 .408-.291.74-.651.74h-2.782c-.359 0-.651-.332-.651-.74v-5.72a.53.53 0 0 1 .127-.348l.407-.462a.54.54 0 0 0 0-.696l-.407-.462a.529.529 0 0 1-.127-.348Z" fill="#0A2D4D"/><path d="M138.658 44.72c.36 0 .651.331.651.74v5.72a.529.529 0 0 1-.127.348l-.407.462a.542.542 0 0 0 0 .696l.407.462a.525.525 0 0 1 .127.348v2.738c0 .408-.291.739-.651.739h-2.782c-.359 0-.651-.33-.651-.739v-5.72a.53.53 0 0 1 .127-.348l.407-.462a.54.54 0 0 0 0-.697l-.407-.461a.529.529 0 0 1-.127-.349V45.46c0-.408.292-.738.651-.738h2.782Zm-.073.525-2.635-.003c-.103 0-.2.097-.213.233l-.001.03v2.714c0 .008.002.015.004.02l.003.006.426.458c.334.358.345.919.035 1.291l-.035.04-.426.457a.033.033 0 0 0-.006.015l-.001.01v5.672c0 .143.09.249.192.262l.022.002 2.635.003c.103 0 .2-.096.213-.233l.001-.03v-2.714a.046.046 0 0 0-.004-.02l-.004-.006-.426-.458a.985.985 0 0 1-.034-1.29l.034-.04.426-.458a.024.024 0 0 0 .007-.015l.001-.01v-5.672c0-.142-.09-.249-.192-.263l-.022-.001Z" fill="#000" fill-opacity=".4"/></svg>