<svg width="200" height="100" fill="none" xmlns="http://www.w3.org/2000/svg"><path d="M184.56 69.587c-.8 0-1.439-.677-1.439-1.524 0-.83.639-1.525 1.439-1.525.783 0 1.44.677 1.44 1.525 0 .828-.657 1.524-1.44 1.524zm0-2.753c-.638 0-1.16.552-1.16 1.229 0 .676.522 1.228 1.16 1.228.639 0 1.161-.552 1.161-1.228 0-.677-.522-1.23-1.161-1.23zm.729 2.029h-.333l-.288-.572h-.378v.572h-.305v-1.677h.755c.333 0 .54.229.54.553a.53.53 0 01-.333.505l.342.619zm-.567-.877c.117 0 .234-.076.234-.247 0-.2-.099-.248-.234-.248h-.477v.505h.477v-.01zm-150.484-1.6h3.69v10.641h6.405v3.41H34.238V66.387zm13.91 7.06v-.048c0-4.03 3.077-7.317 7.171-7.317s7.117 3.23 7.117 7.26v.047c0 4.03-3.077 7.317-7.17 7.317-4.094 0-7.118-3.23-7.118-7.26zm10.545 0v-.048c0-2.03-1.367-3.783-3.41-3.783-2.006 0-3.356 1.725-3.356 3.754v.048c0 2.029 1.368 3.782 3.383 3.782 2.034 0 3.383-1.724 3.383-3.754zm8.26.828v-7.888h3.734v7.812c0 2.03.972 2.982 2.439 2.982 1.466 0 2.438-.924 2.438-2.877v-7.917h3.734v7.793c0 4.535-2.439 6.516-6.217 6.516-3.761-.01-6.128-2.02-6.128-6.42zm17.977-7.888h5.111c4.733 0 7.495 2.877 7.495 6.935v.048c0 4.058-2.79 7.06-7.567 7.06H84.93V66.385zm5.174 10.594c2.195 0 3.662-1.277 3.662-3.554v-.047c0-2.258-1.467-3.554-3.662-3.554H88.61v7.136h1.494v.019zm12.776-10.594h10.618v3.41h-6.955v2.401h6.289v3.23h-6.289v5.01h-3.663V66.387zm15.728 0h3.662v10.641h6.434v3.41h-10.105V66.387h.009zm19.705-.105h3.545l5.65 14.147h-3.95l-.971-2.505h-5.111l-.945 2.505h-3.86l5.642-14.147zm3.239 8.612l-1.467-3.982-1.493 3.982h2.96zm10.698-8.507h6.271c2.034 0 3.429.552 4.328 1.524.783.8 1.179 1.877 1.179 3.277v.048c0 2.153-1.089 3.582-2.717 4.306l3.167 4.907h-4.256l-2.672-4.259h-1.611v4.259h-3.689V66.386zm6.1 6.735c1.251 0 1.962-.647 1.962-1.657v-.048c0-1.105-.756-1.658-1.989-1.658h-2.411v3.354l2.438.01zm10.978-6.735h10.671v3.306h-7.027v2.124h6.361v3.077h-6.361v2.23h7.117v3.305h-10.761V66.386zM26.194 75.093c-.522 1.23-1.61 2.106-3.032 2.106-2.006 0-3.383-1.782-3.383-3.782v-.048c0-2.03 1.35-3.754 3.356-3.754 1.512 0 2.672.982 3.15 2.325h3.877c-.612-3.353-3.41-5.84-7-5.84-4.085.01-7.162 3.287-7.162 7.317v.047c0 4.04 3.032 7.27 7.117 7.27 3.5 0 6.244-2.401 6.955-5.612l-3.878-.029z" fill="#404041"/><path d="M175.644 43.97l-10.149-6.165-1.755-.8-41.515.305v22.312h53.41l.009-15.653z" fill="#fff"/><path d="M157.163 57.564c.495-1.8.306-3.458-.522-4.687-.756-1.124-2.033-1.782-3.572-1.858l-29.116-.4a.553.553 0 01-.45-.248c-.099-.152-.117-.352-.072-.552a.812.812 0 01.684-.553l29.377-.4c3.473-.172 7.261-3.153 8.583-6.812l1.683-4.63c.072-.2.099-.4.045-.6-1.88-9.06-9.519-15.824-18.652-15.824-8.422 0-15.566 5.764-18.121 13.747-1.656-1.305-3.761-2-6.028-1.781-4.049.428-7.288 3.858-7.684 8.136a9.796 9.796 0 00.216 3.182c-6.596.2-11.877 5.906-11.877 12.947 0 .628.045 1.248.117 1.876.045.305.288.524.567.524h53.742c.306 0 .594-.228.684-.552l.396-1.515z" fill="#F38020"/><path d="M166.439 37.758c-.261 0-.54 0-.801.028-.188 0-.35.153-.422.353l-1.134 4.182c-.495 1.8-.306 3.458.522 4.687.756 1.124 2.033 1.782 3.572 1.858l6.199.4c.189 0 .351.105.45.248.099.152.117.371.072.552a.812.812 0 01-.684.553l-6.46.4c-3.5.172-7.261 3.153-8.584 6.812l-.477 1.276a.361.361 0 00.333.505h22.17a.583.583 0 00.567-.448c.378-1.448.594-2.981.594-4.553 0-9.289-7.144-16.853-15.917-16.853" fill="#FAAE40"/></svg>